%
M48
M72
T01C0.0130
T02C0.0138
T03C0.0400
T04C0.0472
T05C0.1300
%
T01
X12074Y10160
X12763Y11243
X13255Y11046
X13649Y11440
X13944Y11735
X14830Y12621
X15027Y13310
X13944Y13704
X14141Y14688
X14535Y15672
X15420Y16952
X16208Y15672
X18176Y17345
X16011Y18920
X14535Y18330
X12271Y19708
X10401Y16853
X10401Y15369
X10696Y13900
X9810Y13507
X7870Y15081
X12468Y14393
X14436Y9963
X15519Y9963
X15771Y23743
X18176Y24038
X11779Y23743
T02
X12495Y23180
X19495Y21680
X12792Y10079
X13359Y8745
X10226Y8812
T03
X4995Y3180
X4995Y4180
X4995Y5180
X4995Y6180
X4995Y7180
X4995Y8180
X4995Y9180
X4995Y10180
X4995Y11180
X4995Y12180
X4995Y13180
X4995Y14180
X4995Y15180
X4995Y16180
X4995Y17180
X4995Y18180
X4995Y19180
X4995Y20180
X4995Y21180
X4995Y22180
X5995Y22180
X5995Y21180
X5995Y20180
X5995Y19180
X5995Y18180
X5995Y17180
X5995Y16180
X5995Y15180
X5995Y14180
X5995Y13180
X5995Y12180
X5995Y11180
X5995Y10180
X5995Y9180
X5995Y8180
X5995Y7180
X5995Y6180
X5995Y5180
X5995Y4180
X5995Y3180
X10335Y7680
X11415Y7680
X10875Y6680
X11955Y6680
X13035Y6680
X12495Y7680
X13575Y7680
X14115Y6680
X14655Y7680
X18995Y7180
X18995Y6180
X18995Y5180
X18995Y4180
X18995Y3180
X19995Y3180
X19995Y4180
X19995Y5180
X19995Y6180
X19995Y7180
X19995Y8180
X18995Y8180
X18995Y9180
X18995Y10180
X18995Y11180
X18995Y12180
X18995Y13180
X18995Y14180
X18995Y15180
X18995Y16180
X18995Y17180
X18995Y18180
X18995Y19180
X18995Y20180
X18995Y21180
X18995Y22180
X19995Y22180
X19995Y21180
X19995Y20180
X19995Y19180
X19995Y18180
X19995Y17180
X19995Y16180
X19995Y15180
X19995Y14180
X19995Y13180
X19995Y12180
X19995Y11180
X19995Y10180
X19995Y9180
T04
X14995Y22294
X14995Y25050
X10495Y25050
X10495Y22294
T05
X7565Y7180
X17425Y7180
M30
