G75*
%MOIN*%
%OFA0B0*%
%FSLAX25Y25*%
%IPPOS*%
%LPD*%
%AMOC8*
5,1,8,0,0,1.08239X$1,22.5*
%
%ADD10R,0.04000X0.04500*%
%ADD11C,0.01000*%
%ADD12R,0.05906X0.05118*%
%ADD13R,0.06000X0.03000*%
%ADD14C,0.00875*%
%ADD15R,0.09843X0.04724*%
%ADD16R,0.01575X0.06299*%
%ADD17R,0.03937X0.09843*%
%ADD18R,0.07874X0.09843*%
%ADD19R,0.03937X0.21654*%
%ADD20R,0.06299X0.13386*%
%ADD21R,0.06024X0.02087*%
D10*
X0166452Y0129800D03*
X0173452Y0129800D03*
X0169952Y0121800D03*
D11*
X0077002Y0104600D02*
X0077002Y0101600D01*
X0072502Y0101600D01*
X0072502Y0104600D01*
X0077002Y0104600D01*
X0077002Y0102599D02*
X0072502Y0102599D01*
X0072502Y0103598D02*
X0077002Y0103598D01*
X0077002Y0104597D02*
X0072502Y0104597D01*
X0077002Y0108600D02*
X0077002Y0111600D01*
X0077002Y0108600D02*
X0072502Y0108600D01*
X0072502Y0111600D01*
X0077002Y0111600D01*
X0077002Y0109599D02*
X0072502Y0109599D01*
X0072502Y0110598D02*
X0077002Y0110598D01*
X0077002Y0111597D02*
X0072502Y0111597D01*
X0077602Y0125200D02*
X0077602Y0128200D01*
X0077602Y0125200D02*
X0073102Y0125200D01*
X0073102Y0128200D01*
X0077602Y0128200D01*
X0077602Y0126199D02*
X0073102Y0126199D01*
X0073102Y0127198D02*
X0077602Y0127198D01*
X0077602Y0128197D02*
X0073102Y0128197D01*
X0077602Y0132200D02*
X0077602Y0135200D01*
X0077602Y0132200D02*
X0073102Y0132200D01*
X0073102Y0135200D01*
X0077602Y0135200D01*
X0077602Y0133199D02*
X0073102Y0133199D01*
X0073102Y0134198D02*
X0077602Y0134198D01*
X0077602Y0135197D02*
X0073102Y0135197D01*
X0072680Y0145781D02*
X0072680Y0148781D01*
X0077180Y0148781D01*
X0077180Y0145781D01*
X0072680Y0145781D01*
X0072680Y0146780D02*
X0077180Y0146780D01*
X0077180Y0147779D02*
X0072680Y0147779D01*
X0072680Y0148778D02*
X0077180Y0148778D01*
X0072680Y0152781D02*
X0072680Y0155781D01*
X0077180Y0155781D01*
X0077180Y0152781D01*
X0072680Y0152781D01*
X0072680Y0153780D02*
X0077180Y0153780D01*
X0077180Y0154779D02*
X0072680Y0154779D01*
X0072680Y0155778D02*
X0077180Y0155778D01*
X0092002Y0111000D02*
X0092002Y0108000D01*
X0087502Y0108000D01*
X0087502Y0111000D01*
X0092002Y0111000D01*
X0092002Y0108999D02*
X0087502Y0108999D01*
X0087502Y0109998D02*
X0092002Y0109998D01*
X0092002Y0110997D02*
X0087502Y0110997D01*
X0092002Y0104000D02*
X0092002Y0101000D01*
X0087502Y0101000D01*
X0087502Y0104000D01*
X0092002Y0104000D01*
X0092002Y0101999D02*
X0087502Y0101999D01*
X0087502Y0102998D02*
X0092002Y0102998D01*
X0092002Y0103997D02*
X0087502Y0103997D01*
X0157502Y0105200D02*
X0157502Y0102200D01*
X0157502Y0105200D02*
X0162002Y0105200D01*
X0162002Y0102200D01*
X0157502Y0102200D01*
X0157502Y0103199D02*
X0162002Y0103199D01*
X0162002Y0104198D02*
X0157502Y0104198D01*
X0157502Y0105197D02*
X0162002Y0105197D01*
X0157502Y0109200D02*
X0157502Y0112200D01*
X0162002Y0112200D01*
X0162002Y0109200D01*
X0157502Y0109200D01*
X0157502Y0110199D02*
X0162002Y0110199D01*
X0162002Y0111198D02*
X0157502Y0111198D01*
X0157502Y0112197D02*
X0162002Y0112197D01*
X0175202Y0112400D02*
X0175202Y0109400D01*
X0170702Y0109400D01*
X0170702Y0112400D01*
X0175202Y0112400D01*
X0175202Y0110399D02*
X0170702Y0110399D01*
X0170702Y0111398D02*
X0175202Y0111398D01*
X0175202Y0112397D02*
X0170702Y0112397D01*
X0175202Y0105400D02*
X0175202Y0102400D01*
X0170702Y0102400D01*
X0170702Y0105400D01*
X0175202Y0105400D01*
X0175202Y0103399D02*
X0170702Y0103399D01*
X0170702Y0104398D02*
X0175202Y0104398D01*
X0175202Y0105397D02*
X0170702Y0105397D01*
D12*
X0146952Y0104454D03*
X0146952Y0111146D03*
X0131952Y0127454D03*
X0131952Y0134146D03*
X0117952Y0134146D03*
X0117952Y0127454D03*
X0103552Y0127454D03*
X0103552Y0134146D03*
X0089152Y0134346D03*
X0089152Y0127654D03*
X0102952Y0110146D03*
X0102952Y0103454D03*
D13*
X0076952Y0235300D03*
X0076952Y0250300D03*
X0056952Y0250300D03*
X0056952Y0235300D03*
X0177286Y0235634D03*
X0177286Y0250634D03*
X0197286Y0250634D03*
X0197286Y0235634D03*
D14*
X0155215Y0130613D02*
X0155215Y0127987D01*
X0151089Y0127987D01*
X0151089Y0130613D01*
X0155215Y0130613D01*
X0155215Y0128861D02*
X0151089Y0128861D01*
X0151089Y0129735D02*
X0155215Y0129735D01*
X0155215Y0130609D02*
X0151089Y0130609D01*
X0155215Y0123613D02*
X0155215Y0120987D01*
X0151089Y0120987D01*
X0151089Y0123613D01*
X0155215Y0123613D01*
X0155215Y0121861D02*
X0151089Y0121861D01*
X0151089Y0122735D02*
X0155215Y0122735D01*
X0155215Y0123609D02*
X0151089Y0123609D01*
D15*
X0137157Y0212312D03*
X0117748Y0216643D03*
X0117748Y0232391D03*
X0117748Y0244202D03*
X0092157Y0212312D03*
X0162748Y0216643D03*
X0162748Y0232391D03*
X0162748Y0244202D03*
D16*
X0133712Y0118020D03*
X0131153Y0118020D03*
X0128594Y0118020D03*
X0126035Y0118020D03*
X0123476Y0118020D03*
X0120917Y0118020D03*
X0118358Y0118020D03*
X0115799Y0118020D03*
X0115799Y0094792D03*
X0118358Y0094792D03*
X0120917Y0094792D03*
X0123476Y0094792D03*
X0126035Y0094792D03*
X0128594Y0094792D03*
X0131153Y0094792D03*
X0133712Y0094792D03*
D17*
X0133141Y0176800D03*
X0141015Y0176800D03*
X0148889Y0176800D03*
X0156763Y0176800D03*
D18*
X0167787Y0189095D03*
X0122118Y0189095D03*
D19*
X0098889Y0179713D03*
X0091015Y0179713D03*
D20*
X0081567Y0186800D03*
X0108338Y0186800D03*
D21*
X0097955Y0155448D03*
X0097955Y0150448D03*
X0097955Y0145448D03*
X0084568Y0145448D03*
X0084568Y0150448D03*
X0084568Y0155448D03*
M02*
