G75*
%MOIN*%
%OFA0B0*%
%FSLAX25Y25*%
%IPPOS*%
%LPD*%
%AMOC8*
5,1,8,0,0,1.08239X$1,22.5*
%
%ADD10C,0.00600*%
%ADD11R,0.00670X0.00334*%
%ADD12R,0.01330X0.00333*%
%ADD13R,0.01000X0.00333*%
%ADD14R,0.01660X0.00333*%
%ADD15R,0.01340X0.00333*%
%ADD16R,0.01340X0.00334*%
%ADD17R,0.01330X0.00334*%
%ADD18R,0.01670X0.00333*%
%ADD19R,0.00670X0.00333*%
%ADD20R,0.01670X0.00334*%
%ADD21R,0.01660X0.00334*%
%ADD22R,0.00340X0.00333*%
%ADD23R,0.02000X0.00334*%
%ADD24R,0.01000X0.00334*%
%ADD25R,0.03000X0.00333*%
%ADD26R,0.03000X0.00334*%
%ADD27R,0.02000X0.00333*%
%ADD28R,0.02330X0.00333*%
%ADD29R,0.02660X0.00333*%
%ADD30R,0.05330X0.00334*%
%ADD31R,0.05000X0.00333*%
%ADD32R,0.05330X0.00333*%
%ADD33R,0.03340X0.00334*%
%ADD34R,0.05000X0.00334*%
%ADD35R,0.03670X0.00333*%
%ADD36R,0.05340X0.00333*%
%ADD37R,0.04670X0.00333*%
%ADD38R,0.05670X0.00334*%
%ADD39R,0.05660X0.00334*%
%ADD40R,0.13340X0.00333*%
%ADD41R,0.14000X0.00333*%
%ADD42R,0.15330X0.00334*%
%ADD43R,0.23660X0.00333*%
%ADD44R,0.24330X0.00333*%
%ADD45R,0.25340X0.00334*%
%ADD46R,0.25670X0.00333*%
%ADD47R,0.26000X0.00334*%
%ADD48R,0.26670X0.00333*%
%ADD49R,0.27000X0.00333*%
%ADD50R,0.27330X0.00334*%
%ADD51R,0.27670X0.00333*%
%ADD52R,0.28330X0.00333*%
%ADD53R,0.11670X0.00334*%
%ADD54R,0.02330X0.00334*%
%ADD55R,0.06670X0.00334*%
%ADD56R,0.11670X0.00333*%
%ADD57R,0.06670X0.00333*%
%ADD58R,0.12000X0.00333*%
%ADD59R,0.07330X0.00333*%
%ADD60R,0.12340X0.00334*%
%ADD61R,0.07660X0.00334*%
%ADD62R,0.12340X0.00333*%
%ADD63R,0.07660X0.00333*%
%ADD64R,0.00340X0.00334*%
%ADD65R,0.06330X0.00333*%
%ADD66R,0.10670X0.00333*%
%ADD67R,0.06000X0.00333*%
%ADD68R,0.00330X0.00333*%
%ADD69R,0.10340X0.00334*%
%ADD70R,0.06000X0.00334*%
%ADD71R,0.00330X0.00334*%
%ADD72R,0.10000X0.00333*%
%ADD73R,0.05660X0.00333*%
%ADD74R,0.09670X0.00333*%
%ADD75R,0.09670X0.00334*%
%ADD76R,0.09340X0.00333*%
%ADD77R,0.06660X0.00333*%
%ADD78R,0.09000X0.00334*%
%ADD79R,0.06660X0.00334*%
%ADD80R,0.06340X0.00333*%
%ADD81R,0.06340X0.00334*%
%ADD82R,0.02340X0.00334*%
%ADD83R,0.00660X0.00334*%
%ADD84R,0.08330X0.00333*%
%ADD85R,0.08670X0.00333*%
%ADD86R,0.08000X0.00334*%
%ADD87R,0.07000X0.00334*%
%ADD88R,0.26000X0.00333*%
%ADD89R,0.25660X0.00333*%
%ADD90R,0.25330X0.00334*%
%ADD91R,0.21000X0.00333*%
%ADD92R,0.03340X0.00333*%
%ADD93R,0.20340X0.00333*%
%ADD94R,0.19330X0.00334*%
%ADD95R,0.18330X0.00333*%
%ADD96R,0.16000X0.00333*%
%ADD97R,0.12000X0.00334*%
%ADD98R,0.09000X0.00333*%
%ADD99R,0.04000X0.00333*%
%ADD100C,0.00000*%
%ADD101C,0.00500*%
%ADD102C,0.00400*%
%ADD103C,0.00700*%
%ADD104R,0.73000X0.03000*%
%ADD105R,1.22000X0.02000*%
%ADD106R,0.03200X0.28500*%
%ADD107R,0.03200X0.18500*%
%ADD108C,0.00800*%
%ADD109C,0.00100*%
%ADD110C,0.01000*%
%ADD111C,0.00200*%
D10*
X0063952Y0025800D02*
X0094452Y0025800D01*
X0155452Y0025800D01*
X0185952Y0025800D01*
X0185952Y0027800D01*
X0175952Y0027800D01*
X0165952Y0027800D01*
X0083952Y0027800D01*
X0083952Y0029800D01*
X0084452Y0029800D01*
X0084452Y0039300D01*
X0084454Y0039398D01*
X0084460Y0039496D01*
X0084469Y0039594D01*
X0084483Y0039691D01*
X0084500Y0039788D01*
X0084521Y0039884D01*
X0084546Y0039979D01*
X0084574Y0040073D01*
X0084607Y0040165D01*
X0084642Y0040257D01*
X0084682Y0040347D01*
X0084724Y0040435D01*
X0084771Y0040522D01*
X0084820Y0040606D01*
X0084873Y0040689D01*
X0084929Y0040769D01*
X0084989Y0040848D01*
X0085051Y0040924D01*
X0085116Y0040997D01*
X0085184Y0041068D01*
X0085255Y0041136D01*
X0085328Y0041201D01*
X0085404Y0041263D01*
X0085483Y0041323D01*
X0085563Y0041379D01*
X0085646Y0041432D01*
X0085730Y0041481D01*
X0085817Y0041528D01*
X0085905Y0041570D01*
X0085995Y0041610D01*
X0086087Y0041645D01*
X0086179Y0041678D01*
X0086273Y0041706D01*
X0086368Y0041731D01*
X0086464Y0041752D01*
X0086561Y0041769D01*
X0086658Y0041783D01*
X0086756Y0041792D01*
X0086854Y0041798D01*
X0086952Y0041800D01*
X0087452Y0041800D02*
X0087452Y0082300D01*
X0085452Y0084300D01*
X0065952Y0084300D01*
X0063952Y0082300D01*
X0063952Y0042300D01*
X0063952Y0041800D01*
X0083952Y0041800D01*
X0087452Y0041800D01*
X0088452Y0041800D01*
X0088452Y0044800D01*
X0161452Y0044800D01*
X0161452Y0041800D01*
X0088452Y0041800D01*
X0083952Y0027800D02*
X0073952Y0027800D01*
X0063952Y0027800D01*
X0063952Y0029800D01*
X0063952Y0041800D01*
X0063952Y0027800D02*
X0063952Y0025800D01*
X0090452Y0025800D02*
X0090550Y0025798D01*
X0090648Y0025792D01*
X0090746Y0025783D01*
X0090843Y0025769D01*
X0090940Y0025752D01*
X0091036Y0025731D01*
X0091131Y0025706D01*
X0091225Y0025678D01*
X0091317Y0025645D01*
X0091409Y0025610D01*
X0091499Y0025570D01*
X0091587Y0025528D01*
X0091674Y0025481D01*
X0091758Y0025432D01*
X0091841Y0025379D01*
X0091921Y0025323D01*
X0092000Y0025263D01*
X0092076Y0025201D01*
X0092149Y0025136D01*
X0092220Y0025068D01*
X0092288Y0024997D01*
X0092353Y0024924D01*
X0092415Y0024848D01*
X0092475Y0024769D01*
X0092531Y0024689D01*
X0092584Y0024606D01*
X0092633Y0024522D01*
X0092680Y0024435D01*
X0092722Y0024347D01*
X0092762Y0024257D01*
X0092797Y0024165D01*
X0092830Y0024073D01*
X0092858Y0023979D01*
X0092883Y0023884D01*
X0092904Y0023788D01*
X0092921Y0023691D01*
X0092935Y0023594D01*
X0092944Y0023496D01*
X0092950Y0023398D01*
X0092952Y0023300D01*
X0092952Y0003300D01*
X0092954Y0003213D01*
X0092960Y0003126D01*
X0092969Y0003039D01*
X0092982Y0002953D01*
X0092999Y0002867D01*
X0093020Y0002782D01*
X0093045Y0002699D01*
X0093073Y0002616D01*
X0093104Y0002535D01*
X0093139Y0002455D01*
X0093178Y0002377D01*
X0093220Y0002300D01*
X0093265Y0002225D01*
X0093314Y0002153D01*
X0093365Y0002082D01*
X0093420Y0002014D01*
X0093477Y0001949D01*
X0093538Y0001886D01*
X0093601Y0001825D01*
X0093666Y0001768D01*
X0093734Y0001713D01*
X0093805Y0001662D01*
X0093877Y0001613D01*
X0093952Y0001568D01*
X0094029Y0001526D01*
X0094107Y0001487D01*
X0094187Y0001452D01*
X0094268Y0001421D01*
X0094351Y0001393D01*
X0094434Y0001368D01*
X0094519Y0001347D01*
X0094605Y0001330D01*
X0094691Y0001317D01*
X0094778Y0001308D01*
X0094865Y0001302D01*
X0094952Y0001300D01*
X0095952Y0001300D01*
X0153952Y0001300D01*
X0154952Y0001300D01*
X0155039Y0001302D01*
X0155126Y0001308D01*
X0155213Y0001317D01*
X0155299Y0001330D01*
X0155385Y0001347D01*
X0155470Y0001368D01*
X0155553Y0001393D01*
X0155636Y0001421D01*
X0155717Y0001452D01*
X0155797Y0001487D01*
X0155875Y0001526D01*
X0155952Y0001568D01*
X0156027Y0001613D01*
X0156099Y0001662D01*
X0156170Y0001713D01*
X0156238Y0001768D01*
X0156303Y0001825D01*
X0156366Y0001886D01*
X0156427Y0001949D01*
X0156484Y0002014D01*
X0156539Y0002082D01*
X0156590Y0002153D01*
X0156639Y0002225D01*
X0156684Y0002300D01*
X0156726Y0002377D01*
X0156765Y0002455D01*
X0156800Y0002535D01*
X0156831Y0002616D01*
X0156859Y0002699D01*
X0156884Y0002782D01*
X0156905Y0002867D01*
X0156922Y0002953D01*
X0156935Y0003039D01*
X0156944Y0003126D01*
X0156950Y0003213D01*
X0156952Y0003300D01*
X0156952Y0023300D01*
X0156954Y0023398D01*
X0156960Y0023496D01*
X0156969Y0023594D01*
X0156983Y0023691D01*
X0157000Y0023788D01*
X0157021Y0023884D01*
X0157046Y0023979D01*
X0157074Y0024073D01*
X0157107Y0024165D01*
X0157142Y0024257D01*
X0157182Y0024347D01*
X0157224Y0024435D01*
X0157271Y0024522D01*
X0157320Y0024606D01*
X0157373Y0024689D01*
X0157429Y0024769D01*
X0157489Y0024848D01*
X0157551Y0024924D01*
X0157616Y0024997D01*
X0157684Y0025068D01*
X0157755Y0025136D01*
X0157828Y0025201D01*
X0157904Y0025263D01*
X0157983Y0025323D01*
X0158063Y0025379D01*
X0158146Y0025432D01*
X0158230Y0025481D01*
X0158317Y0025528D01*
X0158405Y0025570D01*
X0158495Y0025610D01*
X0158587Y0025645D01*
X0158679Y0025678D01*
X0158773Y0025706D01*
X0158868Y0025731D01*
X0158964Y0025752D01*
X0159061Y0025769D01*
X0159158Y0025783D01*
X0159256Y0025792D01*
X0159354Y0025798D01*
X0159452Y0025800D01*
X0165952Y0027800D02*
X0165952Y0029800D01*
X0165452Y0029800D01*
X0165452Y0039300D01*
X0165450Y0039398D01*
X0165444Y0039496D01*
X0165435Y0039594D01*
X0165421Y0039691D01*
X0165404Y0039788D01*
X0165383Y0039884D01*
X0165358Y0039979D01*
X0165330Y0040073D01*
X0165297Y0040165D01*
X0165262Y0040257D01*
X0165222Y0040347D01*
X0165180Y0040435D01*
X0165133Y0040522D01*
X0165084Y0040606D01*
X0165031Y0040689D01*
X0164975Y0040769D01*
X0164915Y0040848D01*
X0164853Y0040924D01*
X0164788Y0040997D01*
X0164720Y0041068D01*
X0164649Y0041136D01*
X0164576Y0041201D01*
X0164500Y0041263D01*
X0164421Y0041323D01*
X0164341Y0041379D01*
X0164258Y0041432D01*
X0164174Y0041481D01*
X0164087Y0041528D01*
X0163999Y0041570D01*
X0163909Y0041610D01*
X0163817Y0041645D01*
X0163725Y0041678D01*
X0163631Y0041706D01*
X0163536Y0041731D01*
X0163440Y0041752D01*
X0163343Y0041769D01*
X0163246Y0041783D01*
X0163148Y0041792D01*
X0163050Y0041798D01*
X0162952Y0041800D01*
X0162452Y0041800D02*
X0162452Y0082300D01*
X0164452Y0084300D01*
X0183452Y0084300D01*
X0185952Y0081800D01*
X0185952Y0042300D01*
X0185952Y0041800D01*
X0185952Y0029800D01*
X0185952Y0027800D01*
X0185952Y0041800D02*
X0165952Y0041800D01*
X0162452Y0041800D01*
X0161452Y0041800D01*
X0167752Y0071800D02*
X0167754Y0071961D01*
X0167760Y0072121D01*
X0167770Y0072282D01*
X0167784Y0072442D01*
X0167802Y0072602D01*
X0167823Y0072761D01*
X0167849Y0072920D01*
X0167879Y0073078D01*
X0167912Y0073235D01*
X0167950Y0073392D01*
X0167991Y0073547D01*
X0168036Y0073701D01*
X0168085Y0073854D01*
X0168138Y0074006D01*
X0168194Y0074157D01*
X0168255Y0074306D01*
X0168318Y0074454D01*
X0168386Y0074600D01*
X0168457Y0074744D01*
X0168531Y0074886D01*
X0168609Y0075027D01*
X0168691Y0075165D01*
X0168776Y0075302D01*
X0168864Y0075436D01*
X0168956Y0075568D01*
X0169051Y0075698D01*
X0169149Y0075826D01*
X0169250Y0075951D01*
X0169354Y0076073D01*
X0169461Y0076193D01*
X0169571Y0076310D01*
X0169684Y0076425D01*
X0169800Y0076536D01*
X0169919Y0076645D01*
X0170040Y0076750D01*
X0170164Y0076853D01*
X0170290Y0076953D01*
X0170418Y0077049D01*
X0170549Y0077142D01*
X0170683Y0077232D01*
X0170818Y0077319D01*
X0170956Y0077402D01*
X0171095Y0077482D01*
X0171237Y0077558D01*
X0171380Y0077631D01*
X0171525Y0077700D01*
X0171672Y0077766D01*
X0171820Y0077828D01*
X0171970Y0077886D01*
X0172121Y0077941D01*
X0172274Y0077992D01*
X0172428Y0078039D01*
X0172583Y0078082D01*
X0172739Y0078121D01*
X0172895Y0078157D01*
X0173053Y0078188D01*
X0173211Y0078216D01*
X0173370Y0078240D01*
X0173530Y0078260D01*
X0173690Y0078276D01*
X0173850Y0078288D01*
X0174011Y0078296D01*
X0174172Y0078300D01*
X0174332Y0078300D01*
X0174493Y0078296D01*
X0174654Y0078288D01*
X0174814Y0078276D01*
X0174974Y0078260D01*
X0175134Y0078240D01*
X0175293Y0078216D01*
X0175451Y0078188D01*
X0175609Y0078157D01*
X0175765Y0078121D01*
X0175921Y0078082D01*
X0176076Y0078039D01*
X0176230Y0077992D01*
X0176383Y0077941D01*
X0176534Y0077886D01*
X0176684Y0077828D01*
X0176832Y0077766D01*
X0176979Y0077700D01*
X0177124Y0077631D01*
X0177267Y0077558D01*
X0177409Y0077482D01*
X0177548Y0077402D01*
X0177686Y0077319D01*
X0177821Y0077232D01*
X0177955Y0077142D01*
X0178086Y0077049D01*
X0178214Y0076953D01*
X0178340Y0076853D01*
X0178464Y0076750D01*
X0178585Y0076645D01*
X0178704Y0076536D01*
X0178820Y0076425D01*
X0178933Y0076310D01*
X0179043Y0076193D01*
X0179150Y0076073D01*
X0179254Y0075951D01*
X0179355Y0075826D01*
X0179453Y0075698D01*
X0179548Y0075568D01*
X0179640Y0075436D01*
X0179728Y0075302D01*
X0179813Y0075165D01*
X0179895Y0075027D01*
X0179973Y0074886D01*
X0180047Y0074744D01*
X0180118Y0074600D01*
X0180186Y0074454D01*
X0180249Y0074306D01*
X0180310Y0074157D01*
X0180366Y0074006D01*
X0180419Y0073854D01*
X0180468Y0073701D01*
X0180513Y0073547D01*
X0180554Y0073392D01*
X0180592Y0073235D01*
X0180625Y0073078D01*
X0180655Y0072920D01*
X0180681Y0072761D01*
X0180702Y0072602D01*
X0180720Y0072442D01*
X0180734Y0072282D01*
X0180744Y0072121D01*
X0180750Y0071961D01*
X0180752Y0071800D01*
X0180750Y0071639D01*
X0180744Y0071479D01*
X0180734Y0071318D01*
X0180720Y0071158D01*
X0180702Y0070998D01*
X0180681Y0070839D01*
X0180655Y0070680D01*
X0180625Y0070522D01*
X0180592Y0070365D01*
X0180554Y0070208D01*
X0180513Y0070053D01*
X0180468Y0069899D01*
X0180419Y0069746D01*
X0180366Y0069594D01*
X0180310Y0069443D01*
X0180249Y0069294D01*
X0180186Y0069146D01*
X0180118Y0069000D01*
X0180047Y0068856D01*
X0179973Y0068714D01*
X0179895Y0068573D01*
X0179813Y0068435D01*
X0179728Y0068298D01*
X0179640Y0068164D01*
X0179548Y0068032D01*
X0179453Y0067902D01*
X0179355Y0067774D01*
X0179254Y0067649D01*
X0179150Y0067527D01*
X0179043Y0067407D01*
X0178933Y0067290D01*
X0178820Y0067175D01*
X0178704Y0067064D01*
X0178585Y0066955D01*
X0178464Y0066850D01*
X0178340Y0066747D01*
X0178214Y0066647D01*
X0178086Y0066551D01*
X0177955Y0066458D01*
X0177821Y0066368D01*
X0177686Y0066281D01*
X0177548Y0066198D01*
X0177409Y0066118D01*
X0177267Y0066042D01*
X0177124Y0065969D01*
X0176979Y0065900D01*
X0176832Y0065834D01*
X0176684Y0065772D01*
X0176534Y0065714D01*
X0176383Y0065659D01*
X0176230Y0065608D01*
X0176076Y0065561D01*
X0175921Y0065518D01*
X0175765Y0065479D01*
X0175609Y0065443D01*
X0175451Y0065412D01*
X0175293Y0065384D01*
X0175134Y0065360D01*
X0174974Y0065340D01*
X0174814Y0065324D01*
X0174654Y0065312D01*
X0174493Y0065304D01*
X0174332Y0065300D01*
X0174172Y0065300D01*
X0174011Y0065304D01*
X0173850Y0065312D01*
X0173690Y0065324D01*
X0173530Y0065340D01*
X0173370Y0065360D01*
X0173211Y0065384D01*
X0173053Y0065412D01*
X0172895Y0065443D01*
X0172739Y0065479D01*
X0172583Y0065518D01*
X0172428Y0065561D01*
X0172274Y0065608D01*
X0172121Y0065659D01*
X0171970Y0065714D01*
X0171820Y0065772D01*
X0171672Y0065834D01*
X0171525Y0065900D01*
X0171380Y0065969D01*
X0171237Y0066042D01*
X0171095Y0066118D01*
X0170956Y0066198D01*
X0170818Y0066281D01*
X0170683Y0066368D01*
X0170549Y0066458D01*
X0170418Y0066551D01*
X0170290Y0066647D01*
X0170164Y0066747D01*
X0170040Y0066850D01*
X0169919Y0066955D01*
X0169800Y0067064D01*
X0169684Y0067175D01*
X0169571Y0067290D01*
X0169461Y0067407D01*
X0169354Y0067527D01*
X0169250Y0067649D01*
X0169149Y0067774D01*
X0169051Y0067902D01*
X0168956Y0068032D01*
X0168864Y0068164D01*
X0168776Y0068298D01*
X0168691Y0068435D01*
X0168609Y0068573D01*
X0168531Y0068714D01*
X0168457Y0068856D01*
X0168386Y0069000D01*
X0168318Y0069146D01*
X0168255Y0069294D01*
X0168194Y0069443D01*
X0168138Y0069594D01*
X0168085Y0069746D01*
X0168036Y0069899D01*
X0167991Y0070053D01*
X0167950Y0070208D01*
X0167912Y0070365D01*
X0167879Y0070522D01*
X0167849Y0070680D01*
X0167823Y0070839D01*
X0167802Y0070998D01*
X0167784Y0071158D01*
X0167770Y0071318D01*
X0167760Y0071479D01*
X0167754Y0071639D01*
X0167752Y0071800D01*
X0148053Y0119035D02*
X0141648Y0119035D01*
X0141648Y0122238D01*
X0142715Y0123305D01*
X0144850Y0123305D01*
X0145918Y0122238D01*
X0145918Y0119035D01*
X0141648Y0125480D02*
X0141648Y0129751D01*
X0141648Y0127616D02*
X0148053Y0127616D01*
X0148053Y0134061D02*
X0141648Y0134061D01*
X0141648Y0131926D02*
X0141648Y0136196D01*
X0173247Y0182100D02*
X0173247Y0184235D01*
X0173247Y0183168D02*
X0179652Y0183168D01*
X0179652Y0184235D02*
X0179652Y0182100D01*
X0179652Y0186397D02*
X0175382Y0190667D01*
X0174315Y0190667D01*
X0173247Y0189600D01*
X0173247Y0187465D01*
X0174315Y0186397D01*
X0179652Y0186397D02*
X0179652Y0190667D01*
X0178585Y0192842D02*
X0179652Y0193910D01*
X0179652Y0196045D01*
X0178585Y0197113D01*
X0174315Y0197113D02*
X0173247Y0196045D01*
X0173247Y0193910D01*
X0174315Y0192842D01*
X0178585Y0192842D01*
X0134652Y0218168D02*
X0134652Y0220303D01*
X0133585Y0221370D01*
X0134652Y0223545D02*
X0132517Y0225681D01*
X0134652Y0227816D01*
X0128247Y0227816D01*
X0128247Y0223545D02*
X0134652Y0223545D01*
X0134652Y0218168D02*
X0133585Y0217100D01*
X0129315Y0217100D01*
X0128247Y0218168D01*
X0128247Y0220303D01*
X0129315Y0221370D01*
X0131450Y0229991D02*
X0131450Y0234261D01*
X0132517Y0236436D02*
X0128247Y0240707D01*
X0128247Y0242882D02*
X0134652Y0242882D01*
X0134652Y0247152D01*
X0131450Y0245017D02*
X0131450Y0242882D01*
X0134652Y0240707D02*
X0131450Y0237504D01*
X0134652Y0236436D02*
X0128247Y0236436D01*
X0128247Y0242882D02*
X0128247Y0247152D01*
X0128247Y0249327D02*
X0129315Y0249327D01*
X0131450Y0251463D01*
X0134652Y0251463D01*
X0131450Y0251463D02*
X0129315Y0253598D01*
X0128247Y0253598D01*
X0089652Y0248936D02*
X0089652Y0246801D01*
X0088585Y0245733D01*
X0084315Y0245733D01*
X0083247Y0246801D01*
X0083247Y0248936D01*
X0084315Y0250004D01*
X0088585Y0250004D01*
X0089652Y0248936D01*
X0089652Y0243572D02*
X0089652Y0241436D01*
X0089652Y0242504D02*
X0083247Y0242504D01*
X0083247Y0241436D02*
X0083247Y0243572D01*
X0084315Y0239261D02*
X0083247Y0238194D01*
X0083247Y0234991D01*
X0089652Y0234991D01*
X0089652Y0238194D01*
X0088585Y0239261D01*
X0084315Y0239261D01*
X0083247Y0232816D02*
X0088585Y0232816D01*
X0089652Y0231748D01*
X0089652Y0229613D01*
X0088585Y0228545D01*
X0083247Y0228545D01*
X0085382Y0226370D02*
X0089652Y0226370D01*
X0086450Y0226370D02*
X0086450Y0222100D01*
X0085382Y0222100D02*
X0083247Y0224235D01*
X0085382Y0226370D01*
X0085382Y0222100D02*
X0089652Y0222100D01*
X0074652Y0195004D02*
X0068247Y0195004D01*
X0068247Y0190733D02*
X0074652Y0195004D01*
X0074652Y0190733D02*
X0068247Y0190733D01*
X0068247Y0188572D02*
X0068247Y0186436D01*
X0068247Y0187504D02*
X0074652Y0187504D01*
X0074652Y0186436D02*
X0074652Y0188572D01*
X0072517Y0177816D02*
X0068247Y0177816D01*
X0072517Y0177816D02*
X0074652Y0175681D01*
X0072517Y0173545D01*
X0068247Y0173545D01*
X0068247Y0171370D02*
X0068247Y0167100D01*
X0071450Y0167100D01*
X0070382Y0169235D01*
X0070382Y0170303D01*
X0071450Y0171370D01*
X0073585Y0171370D01*
X0074652Y0170303D01*
X0074652Y0168168D01*
X0073585Y0167100D01*
X0081262Y0159948D02*
X0081264Y0160011D01*
X0081270Y0160073D01*
X0081280Y0160135D01*
X0081293Y0160197D01*
X0081311Y0160257D01*
X0081332Y0160316D01*
X0081357Y0160374D01*
X0081386Y0160430D01*
X0081418Y0160484D01*
X0081453Y0160536D01*
X0081491Y0160585D01*
X0081533Y0160633D01*
X0081577Y0160677D01*
X0081625Y0160719D01*
X0081674Y0160757D01*
X0081726Y0160792D01*
X0081780Y0160824D01*
X0081836Y0160853D01*
X0081894Y0160878D01*
X0081953Y0160899D01*
X0082013Y0160917D01*
X0082075Y0160930D01*
X0082137Y0160940D01*
X0082199Y0160946D01*
X0082262Y0160948D01*
X0082325Y0160946D01*
X0082387Y0160940D01*
X0082449Y0160930D01*
X0082511Y0160917D01*
X0082571Y0160899D01*
X0082630Y0160878D01*
X0082688Y0160853D01*
X0082744Y0160824D01*
X0082798Y0160792D01*
X0082850Y0160757D01*
X0082899Y0160719D01*
X0082947Y0160677D01*
X0082991Y0160633D01*
X0083033Y0160585D01*
X0083071Y0160536D01*
X0083106Y0160484D01*
X0083138Y0160430D01*
X0083167Y0160374D01*
X0083192Y0160316D01*
X0083213Y0160257D01*
X0083231Y0160197D01*
X0083244Y0160135D01*
X0083254Y0160073D01*
X0083260Y0160011D01*
X0083262Y0159948D01*
X0083260Y0159885D01*
X0083254Y0159823D01*
X0083244Y0159761D01*
X0083231Y0159699D01*
X0083213Y0159639D01*
X0083192Y0159580D01*
X0083167Y0159522D01*
X0083138Y0159466D01*
X0083106Y0159412D01*
X0083071Y0159360D01*
X0083033Y0159311D01*
X0082991Y0159263D01*
X0082947Y0159219D01*
X0082899Y0159177D01*
X0082850Y0159139D01*
X0082798Y0159104D01*
X0082744Y0159072D01*
X0082688Y0159043D01*
X0082630Y0159018D01*
X0082571Y0158997D01*
X0082511Y0158979D01*
X0082449Y0158966D01*
X0082387Y0158956D01*
X0082325Y0158950D01*
X0082262Y0158948D01*
X0082199Y0158950D01*
X0082137Y0158956D01*
X0082075Y0158966D01*
X0082013Y0158979D01*
X0081953Y0158997D01*
X0081894Y0159018D01*
X0081836Y0159043D01*
X0081780Y0159072D01*
X0081726Y0159104D01*
X0081674Y0159139D01*
X0081625Y0159177D01*
X0081577Y0159219D01*
X0081533Y0159263D01*
X0081491Y0159311D01*
X0081453Y0159360D01*
X0081418Y0159412D01*
X0081386Y0159466D01*
X0081357Y0159522D01*
X0081332Y0159580D01*
X0081311Y0159639D01*
X0081293Y0159699D01*
X0081280Y0159761D01*
X0081270Y0159823D01*
X0081264Y0159885D01*
X0081262Y0159948D01*
X0069152Y0071800D02*
X0069154Y0071961D01*
X0069160Y0072121D01*
X0069170Y0072282D01*
X0069184Y0072442D01*
X0069202Y0072602D01*
X0069223Y0072761D01*
X0069249Y0072920D01*
X0069279Y0073078D01*
X0069312Y0073235D01*
X0069350Y0073392D01*
X0069391Y0073547D01*
X0069436Y0073701D01*
X0069485Y0073854D01*
X0069538Y0074006D01*
X0069594Y0074157D01*
X0069655Y0074306D01*
X0069718Y0074454D01*
X0069786Y0074600D01*
X0069857Y0074744D01*
X0069931Y0074886D01*
X0070009Y0075027D01*
X0070091Y0075165D01*
X0070176Y0075302D01*
X0070264Y0075436D01*
X0070356Y0075568D01*
X0070451Y0075698D01*
X0070549Y0075826D01*
X0070650Y0075951D01*
X0070754Y0076073D01*
X0070861Y0076193D01*
X0070971Y0076310D01*
X0071084Y0076425D01*
X0071200Y0076536D01*
X0071319Y0076645D01*
X0071440Y0076750D01*
X0071564Y0076853D01*
X0071690Y0076953D01*
X0071818Y0077049D01*
X0071949Y0077142D01*
X0072083Y0077232D01*
X0072218Y0077319D01*
X0072356Y0077402D01*
X0072495Y0077482D01*
X0072637Y0077558D01*
X0072780Y0077631D01*
X0072925Y0077700D01*
X0073072Y0077766D01*
X0073220Y0077828D01*
X0073370Y0077886D01*
X0073521Y0077941D01*
X0073674Y0077992D01*
X0073828Y0078039D01*
X0073983Y0078082D01*
X0074139Y0078121D01*
X0074295Y0078157D01*
X0074453Y0078188D01*
X0074611Y0078216D01*
X0074770Y0078240D01*
X0074930Y0078260D01*
X0075090Y0078276D01*
X0075250Y0078288D01*
X0075411Y0078296D01*
X0075572Y0078300D01*
X0075732Y0078300D01*
X0075893Y0078296D01*
X0076054Y0078288D01*
X0076214Y0078276D01*
X0076374Y0078260D01*
X0076534Y0078240D01*
X0076693Y0078216D01*
X0076851Y0078188D01*
X0077009Y0078157D01*
X0077165Y0078121D01*
X0077321Y0078082D01*
X0077476Y0078039D01*
X0077630Y0077992D01*
X0077783Y0077941D01*
X0077934Y0077886D01*
X0078084Y0077828D01*
X0078232Y0077766D01*
X0078379Y0077700D01*
X0078524Y0077631D01*
X0078667Y0077558D01*
X0078809Y0077482D01*
X0078948Y0077402D01*
X0079086Y0077319D01*
X0079221Y0077232D01*
X0079355Y0077142D01*
X0079486Y0077049D01*
X0079614Y0076953D01*
X0079740Y0076853D01*
X0079864Y0076750D01*
X0079985Y0076645D01*
X0080104Y0076536D01*
X0080220Y0076425D01*
X0080333Y0076310D01*
X0080443Y0076193D01*
X0080550Y0076073D01*
X0080654Y0075951D01*
X0080755Y0075826D01*
X0080853Y0075698D01*
X0080948Y0075568D01*
X0081040Y0075436D01*
X0081128Y0075302D01*
X0081213Y0075165D01*
X0081295Y0075027D01*
X0081373Y0074886D01*
X0081447Y0074744D01*
X0081518Y0074600D01*
X0081586Y0074454D01*
X0081649Y0074306D01*
X0081710Y0074157D01*
X0081766Y0074006D01*
X0081819Y0073854D01*
X0081868Y0073701D01*
X0081913Y0073547D01*
X0081954Y0073392D01*
X0081992Y0073235D01*
X0082025Y0073078D01*
X0082055Y0072920D01*
X0082081Y0072761D01*
X0082102Y0072602D01*
X0082120Y0072442D01*
X0082134Y0072282D01*
X0082144Y0072121D01*
X0082150Y0071961D01*
X0082152Y0071800D01*
X0082150Y0071639D01*
X0082144Y0071479D01*
X0082134Y0071318D01*
X0082120Y0071158D01*
X0082102Y0070998D01*
X0082081Y0070839D01*
X0082055Y0070680D01*
X0082025Y0070522D01*
X0081992Y0070365D01*
X0081954Y0070208D01*
X0081913Y0070053D01*
X0081868Y0069899D01*
X0081819Y0069746D01*
X0081766Y0069594D01*
X0081710Y0069443D01*
X0081649Y0069294D01*
X0081586Y0069146D01*
X0081518Y0069000D01*
X0081447Y0068856D01*
X0081373Y0068714D01*
X0081295Y0068573D01*
X0081213Y0068435D01*
X0081128Y0068298D01*
X0081040Y0068164D01*
X0080948Y0068032D01*
X0080853Y0067902D01*
X0080755Y0067774D01*
X0080654Y0067649D01*
X0080550Y0067527D01*
X0080443Y0067407D01*
X0080333Y0067290D01*
X0080220Y0067175D01*
X0080104Y0067064D01*
X0079985Y0066955D01*
X0079864Y0066850D01*
X0079740Y0066747D01*
X0079614Y0066647D01*
X0079486Y0066551D01*
X0079355Y0066458D01*
X0079221Y0066368D01*
X0079086Y0066281D01*
X0078948Y0066198D01*
X0078809Y0066118D01*
X0078667Y0066042D01*
X0078524Y0065969D01*
X0078379Y0065900D01*
X0078232Y0065834D01*
X0078084Y0065772D01*
X0077934Y0065714D01*
X0077783Y0065659D01*
X0077630Y0065608D01*
X0077476Y0065561D01*
X0077321Y0065518D01*
X0077165Y0065479D01*
X0077009Y0065443D01*
X0076851Y0065412D01*
X0076693Y0065384D01*
X0076534Y0065360D01*
X0076374Y0065340D01*
X0076214Y0065324D01*
X0076054Y0065312D01*
X0075893Y0065304D01*
X0075732Y0065300D01*
X0075572Y0065300D01*
X0075411Y0065304D01*
X0075250Y0065312D01*
X0075090Y0065324D01*
X0074930Y0065340D01*
X0074770Y0065360D01*
X0074611Y0065384D01*
X0074453Y0065412D01*
X0074295Y0065443D01*
X0074139Y0065479D01*
X0073983Y0065518D01*
X0073828Y0065561D01*
X0073674Y0065608D01*
X0073521Y0065659D01*
X0073370Y0065714D01*
X0073220Y0065772D01*
X0073072Y0065834D01*
X0072925Y0065900D01*
X0072780Y0065969D01*
X0072637Y0066042D01*
X0072495Y0066118D01*
X0072356Y0066198D01*
X0072218Y0066281D01*
X0072083Y0066368D01*
X0071949Y0066458D01*
X0071818Y0066551D01*
X0071690Y0066647D01*
X0071564Y0066747D01*
X0071440Y0066850D01*
X0071319Y0066955D01*
X0071200Y0067064D01*
X0071084Y0067175D01*
X0070971Y0067290D01*
X0070861Y0067407D01*
X0070754Y0067527D01*
X0070650Y0067649D01*
X0070549Y0067774D01*
X0070451Y0067902D01*
X0070356Y0068032D01*
X0070264Y0068164D01*
X0070176Y0068298D01*
X0070091Y0068435D01*
X0070009Y0068573D01*
X0069931Y0068714D01*
X0069857Y0068856D01*
X0069786Y0069000D01*
X0069718Y0069146D01*
X0069655Y0069294D01*
X0069594Y0069443D01*
X0069538Y0069594D01*
X0069485Y0069746D01*
X0069436Y0069899D01*
X0069391Y0070053D01*
X0069350Y0070208D01*
X0069312Y0070365D01*
X0069279Y0070522D01*
X0069249Y0070680D01*
X0069223Y0070839D01*
X0069202Y0070998D01*
X0069184Y0071158D01*
X0069170Y0071318D01*
X0069160Y0071479D01*
X0069154Y0071639D01*
X0069152Y0071800D01*
X0067098Y0255700D02*
X0069233Y0257835D01*
X0071368Y0255700D01*
X0071368Y0262105D01*
X0073543Y0262105D02*
X0076746Y0262105D01*
X0077814Y0261038D01*
X0077814Y0258903D01*
X0076746Y0257835D01*
X0073543Y0257835D01*
X0073543Y0255700D02*
X0073543Y0262105D01*
X0075679Y0257835D02*
X0077814Y0255700D01*
X0067098Y0255700D02*
X0067098Y0262105D01*
X0064923Y0261038D02*
X0064923Y0258903D01*
X0063855Y0257835D01*
X0060652Y0257835D01*
X0060652Y0255700D02*
X0060652Y0262105D01*
X0063855Y0262105D01*
X0064923Y0261038D01*
X0179653Y0262436D02*
X0179653Y0256031D01*
X0179653Y0259234D02*
X0181788Y0259234D01*
X0179653Y0262436D02*
X0183923Y0262436D01*
X0186098Y0262436D02*
X0186098Y0256031D01*
X0190368Y0256031D01*
X0192544Y0256031D02*
X0196814Y0256031D01*
X0192544Y0256031D02*
X0192544Y0262436D01*
X0190368Y0262436D02*
X0186098Y0262436D01*
X0186098Y0259234D02*
X0188233Y0259234D01*
D11*
X0113095Y0167116D03*
X0122425Y0161116D03*
X0140095Y0155116D03*
X0121095Y0138116D03*
D12*
X0121095Y0138449D03*
X0121425Y0139449D03*
X0119095Y0139782D03*
X0119095Y0140449D03*
X0122095Y0141782D03*
X0120095Y0144449D03*
X0128425Y0154449D03*
X0128425Y0161449D03*
X0128425Y0161782D03*
X0133425Y0144782D03*
X0133425Y0144449D03*
X0133095Y0143449D03*
X0132095Y0141449D03*
X0137425Y0141449D03*
X0137425Y0141782D03*
D13*
X0137260Y0142449D03*
X0137260Y0142782D03*
X0137260Y0143449D03*
X0137260Y0143782D03*
X0136590Y0138449D03*
X0131930Y0140782D03*
X0121930Y0142449D03*
X0121930Y0142782D03*
X0121930Y0143449D03*
X0119930Y0143449D03*
X0119930Y0143782D03*
X0119930Y0142782D03*
X0119930Y0142449D03*
X0119260Y0140782D03*
X0122590Y0160782D03*
X0130930Y0160782D03*
X0130930Y0160449D03*
X0130930Y0159782D03*
X0130930Y0159449D03*
X0130930Y0158782D03*
X0130930Y0158449D03*
X0139590Y0156449D03*
X0139930Y0155782D03*
X0139930Y0155449D03*
X0113260Y0166782D03*
D14*
X0113260Y0160782D03*
X0121260Y0138782D03*
X0133260Y0143782D03*
X0137260Y0144449D03*
X0137260Y0144782D03*
X0137260Y0140782D03*
X0137260Y0140449D03*
D15*
X0136760Y0139449D03*
X0136760Y0138782D03*
X0131760Y0140449D03*
X0121760Y0143782D03*
X0121760Y0144449D03*
X0119760Y0141782D03*
X0119760Y0141449D03*
X0122760Y0155449D03*
X0122760Y0160449D03*
D16*
X0122760Y0160116D03*
X0121760Y0144116D03*
X0119760Y0142116D03*
X0118760Y0139116D03*
X0131760Y0140116D03*
X0136760Y0139116D03*
X0139760Y0156116D03*
D17*
X0128425Y0154116D03*
X0133425Y0144116D03*
X0132095Y0141116D03*
X0137425Y0142116D03*
X0137425Y0144116D03*
X0122095Y0142116D03*
X0121425Y0139116D03*
X0119095Y0140116D03*
D18*
X0118925Y0139449D03*
X0121595Y0139782D03*
X0121925Y0140449D03*
X0121925Y0140782D03*
X0121925Y0141449D03*
X0131595Y0139782D03*
X0132595Y0141782D03*
X0132925Y0142449D03*
X0132925Y0142782D03*
X0133595Y0145449D03*
X0133595Y0145782D03*
X0136925Y0139782D03*
X0124925Y0154449D03*
X0125595Y0156449D03*
X0125595Y0156782D03*
X0125595Y0157449D03*
X0125595Y0157782D03*
X0125595Y0158449D03*
X0125595Y0158782D03*
X0125595Y0159449D03*
X0125595Y0159782D03*
X0122925Y0159782D03*
X0122925Y0159449D03*
X0122925Y0158782D03*
X0122925Y0158449D03*
X0122925Y0157782D03*
X0122925Y0157449D03*
X0122925Y0156782D03*
X0122925Y0156449D03*
X0122925Y0155782D03*
D19*
X0113425Y0166449D03*
X0139425Y0156782D03*
X0131425Y0139449D03*
D20*
X0132925Y0143116D03*
X0133595Y0145116D03*
X0121925Y0141116D03*
X0121925Y0140116D03*
X0119595Y0141116D03*
X0122925Y0156116D03*
X0122925Y0157116D03*
X0122925Y0158116D03*
X0122925Y0159116D03*
X0125595Y0159116D03*
X0125595Y0158116D03*
X0125595Y0157116D03*
X0125595Y0156116D03*
D21*
X0137260Y0145116D03*
X0137260Y0141116D03*
X0137260Y0140116D03*
D22*
X0133260Y0141449D03*
X0139260Y0157449D03*
D23*
X0137090Y0146116D03*
X0133760Y0146116D03*
X0132760Y0142116D03*
X0128430Y0155116D03*
X0125430Y0155116D03*
X0125430Y0160116D03*
X0128430Y0161116D03*
X0130090Y0169116D03*
X0113430Y0161116D03*
D24*
X0113590Y0166116D03*
X0111930Y0166116D03*
X0122930Y0155116D03*
X0130930Y0159116D03*
X0130930Y0160116D03*
X0137260Y0143116D03*
X0121930Y0143116D03*
X0119930Y0143116D03*
X0119930Y0144116D03*
D25*
X0120930Y0144782D03*
X0120930Y0145449D03*
X0120930Y0145782D03*
X0120930Y0146449D03*
X0120930Y0146782D03*
X0120930Y0147449D03*
X0120930Y0147782D03*
D26*
X0120930Y0147116D03*
X0120930Y0146116D03*
X0120930Y0145116D03*
D27*
X0125090Y0154782D03*
X0125430Y0155449D03*
X0125430Y0155782D03*
X0128430Y0154782D03*
X0125430Y0160449D03*
X0125430Y0160782D03*
X0113430Y0160449D03*
X0133760Y0146782D03*
X0133760Y0146449D03*
X0137090Y0145782D03*
X0137090Y0145449D03*
D28*
X0136925Y0146449D03*
X0128595Y0155449D03*
X0128595Y0155782D03*
X0128595Y0156449D03*
X0128595Y0156782D03*
X0128595Y0157449D03*
X0128595Y0157782D03*
X0128595Y0158449D03*
X0128595Y0158782D03*
X0128595Y0159449D03*
X0128595Y0159782D03*
X0128595Y0160449D03*
X0128595Y0160782D03*
X0124925Y0161449D03*
D29*
X0124760Y0161782D03*
X0136760Y0146782D03*
D30*
X0135425Y0147116D03*
X0134425Y0150116D03*
D31*
X0134590Y0149782D03*
X0134590Y0149449D03*
X0135260Y0147449D03*
D32*
X0135095Y0147782D03*
D33*
X0120760Y0148116D03*
D34*
X0134590Y0149116D03*
X0134930Y0148116D03*
D35*
X0120925Y0148449D03*
X0112925Y0165449D03*
D36*
X0134760Y0148782D03*
X0134760Y0148449D03*
D37*
X0120425Y0148782D03*
D38*
X0120595Y0149116D03*
D39*
X0127260Y0149116D03*
X0135260Y0159116D03*
D40*
X0123760Y0149449D03*
D41*
X0123760Y0149782D03*
D42*
X0123425Y0150116D03*
D43*
X0125260Y0150449D03*
D44*
X0124925Y0150782D03*
D45*
X0124760Y0151116D03*
D46*
X0124595Y0151449D03*
X0124595Y0151782D03*
X0124595Y0163782D03*
D47*
X0124430Y0164116D03*
X0124760Y0163116D03*
X0124430Y0152116D03*
D48*
X0124425Y0152449D03*
D49*
X0124260Y0152782D03*
D50*
X0124095Y0153116D03*
D51*
X0123925Y0153449D03*
D52*
X0123595Y0153782D03*
D53*
X0114925Y0154116D03*
D54*
X0124595Y0154116D03*
X0128595Y0156116D03*
X0128595Y0157116D03*
X0128595Y0158116D03*
X0128595Y0159116D03*
X0128595Y0160116D03*
D55*
X0134425Y0154116D03*
D56*
X0114925Y0154449D03*
D57*
X0118095Y0160449D03*
X0134425Y0154449D03*
D58*
X0115430Y0157449D03*
X0115090Y0154782D03*
D59*
X0134425Y0154782D03*
D60*
X0115260Y0155116D03*
X0115260Y0156116D03*
X0115260Y0157116D03*
D61*
X0134260Y0157116D03*
X0134260Y0156116D03*
X0134260Y0155116D03*
D62*
X0115260Y0155449D03*
X0115260Y0155782D03*
X0115260Y0156449D03*
X0115260Y0156782D03*
D63*
X0134260Y0156782D03*
X0134260Y0156449D03*
X0134260Y0155782D03*
X0134260Y0155449D03*
D64*
X0139260Y0157116D03*
D65*
X0134925Y0157449D03*
X0135595Y0160449D03*
X0134925Y0161782D03*
X0129925Y0168449D03*
D66*
X0129425Y0167449D03*
X0116095Y0157782D03*
D67*
X0135090Y0157782D03*
X0135430Y0159449D03*
X0135430Y0160782D03*
X0135090Y0161449D03*
D68*
X0138925Y0159449D03*
X0138925Y0158782D03*
X0138925Y0158449D03*
X0138925Y0157782D03*
X0112925Y0167449D03*
D69*
X0117260Y0162116D03*
X0116260Y0158116D03*
D70*
X0135090Y0158116D03*
D71*
X0138925Y0158116D03*
X0138925Y0159116D03*
D72*
X0116430Y0158449D03*
D73*
X0135260Y0158449D03*
X0135260Y0158782D03*
D74*
X0116595Y0158782D03*
D75*
X0116595Y0159116D03*
D76*
X0116760Y0159449D03*
X0116760Y0159782D03*
D77*
X0135760Y0159782D03*
D78*
X0116930Y0160116D03*
D79*
X0135760Y0160116D03*
D80*
X0118260Y0160782D03*
D81*
X0118260Y0161116D03*
X0135260Y0161116D03*
D82*
X0125260Y0161116D03*
D83*
X0130760Y0161116D03*
D84*
X0116595Y0161449D03*
D85*
X0116425Y0161782D03*
D86*
X0126760Y0162116D03*
X0129760Y0168116D03*
D87*
X0134590Y0162116D03*
D88*
X0125090Y0162449D03*
X0124760Y0162782D03*
X0124760Y0163449D03*
D89*
X0124260Y0164449D03*
X0124260Y0164782D03*
D90*
X0124095Y0165116D03*
D91*
X0126260Y0165449D03*
D92*
X0112760Y0165782D03*
D93*
X0126260Y0165782D03*
D94*
X0126425Y0166116D03*
D95*
X0126595Y0166449D03*
D96*
X0127430Y0166782D03*
D97*
X0129090Y0167116D03*
D98*
X0129590Y0167782D03*
D99*
X0130090Y0168782D03*
D100*
X0149256Y0149781D02*
X0149256Y0148448D01*
X0159921Y0148781D02*
X0159921Y0149781D01*
X0159921Y0083455D02*
X0159921Y0083121D01*
X0090595Y0083455D02*
X0089928Y0084121D01*
X0089928Y0149115D02*
X0089595Y0149781D01*
D101*
X0078430Y0144281D02*
X0078430Y0157281D01*
X0071430Y0157281D01*
X0071430Y0144281D01*
X0078430Y0144281D01*
X0078852Y0136700D02*
X0071852Y0136700D01*
X0071852Y0123700D01*
X0078852Y0123700D01*
X0078852Y0136700D01*
X0078252Y0113100D02*
X0071252Y0113100D01*
X0071252Y0100100D01*
X0078252Y0100100D01*
X0078252Y0113100D01*
X0086252Y0112500D02*
X0086252Y0099500D01*
X0093252Y0099500D01*
X0093252Y0112500D01*
X0086252Y0112500D01*
X0093099Y0079054D02*
X0093099Y0076802D01*
X0094600Y0077553D01*
X0095350Y0077553D01*
X0096101Y0076802D01*
X0096101Y0075301D01*
X0095350Y0074550D01*
X0093849Y0074550D01*
X0093099Y0075301D01*
X0093099Y0079054D02*
X0096101Y0079054D01*
X0095350Y0069054D02*
X0093849Y0069054D01*
X0093099Y0068303D01*
X0093099Y0067553D01*
X0093849Y0066802D01*
X0096101Y0066802D01*
X0096101Y0065301D02*
X0096101Y0068303D01*
X0095350Y0069054D01*
X0096101Y0065301D02*
X0095350Y0064550D01*
X0093849Y0064550D01*
X0093099Y0065301D01*
X0070702Y0059698D02*
X0066199Y0059698D01*
X0068451Y0057446D01*
X0068451Y0060449D01*
X0068451Y0055845D02*
X0067700Y0055094D01*
X0067700Y0054343D01*
X0068451Y0052842D01*
X0066199Y0052842D01*
X0066199Y0055845D01*
X0068451Y0055845D02*
X0069952Y0055845D01*
X0070702Y0055094D01*
X0070702Y0053593D01*
X0069952Y0052842D01*
X0069952Y0051274D02*
X0069952Y0050523D01*
X0070702Y0050523D01*
X0070702Y0051274D01*
X0069952Y0051274D01*
X0070702Y0051274D02*
X0072204Y0049773D01*
X0070702Y0048171D02*
X0070702Y0045169D01*
X0067700Y0048171D01*
X0066949Y0048171D01*
X0066199Y0047421D01*
X0066199Y0045920D01*
X0066949Y0045169D01*
X0141391Y0038054D02*
X0141391Y0033550D01*
X0141391Y0035802D02*
X0142892Y0035802D01*
X0141391Y0038054D02*
X0144393Y0038054D01*
X0145995Y0037303D02*
X0146745Y0038054D01*
X0148247Y0038054D01*
X0148997Y0037303D01*
X0145995Y0034301D01*
X0146745Y0033550D01*
X0148247Y0033550D01*
X0148997Y0034301D01*
X0148997Y0037303D01*
X0150599Y0037303D02*
X0150599Y0036553D01*
X0151349Y0035802D01*
X0153601Y0035802D01*
X0153601Y0037303D02*
X0152850Y0038054D01*
X0151349Y0038054D01*
X0150599Y0037303D01*
X0150599Y0034301D02*
X0151349Y0033550D01*
X0152850Y0033550D01*
X0153601Y0034301D01*
X0153601Y0037303D01*
X0145995Y0037303D02*
X0145995Y0034301D01*
X0151349Y0064550D02*
X0150599Y0065301D01*
X0150599Y0066802D01*
X0152850Y0066802D01*
X0153601Y0066051D01*
X0153601Y0065301D01*
X0152850Y0064550D01*
X0151349Y0064550D01*
X0150599Y0066802D02*
X0152100Y0068303D01*
X0153601Y0069054D01*
X0153601Y0074550D02*
X0150599Y0074550D01*
X0152100Y0074550D02*
X0152100Y0079054D01*
X0150599Y0077553D01*
X0156252Y0100700D02*
X0156252Y0113700D01*
X0163252Y0113700D01*
X0163252Y0100700D01*
X0156252Y0100700D01*
X0169452Y0100900D02*
X0169452Y0113900D01*
X0176452Y0113900D01*
X0176452Y0100900D01*
X0169452Y0100900D01*
X0156652Y0119550D02*
X0149652Y0119550D01*
X0149652Y0132050D01*
X0156652Y0132050D01*
X0156652Y0119550D01*
X0155152Y0125050D02*
X0154152Y0125800D01*
X0154152Y0125050D01*
X0155152Y0125050D01*
X0154152Y0125050D02*
X0153152Y0125050D01*
X0154152Y0125800D01*
X0153152Y0126550D01*
X0151152Y0125050D01*
X0153402Y0126300D01*
X0152152Y0125050D01*
X0153652Y0126050D01*
X0153152Y0125050D01*
X0152152Y0125050D01*
X0151152Y0125050D01*
X0164202Y0123300D02*
X0167202Y0123300D01*
X0164202Y0123300D02*
X0164202Y0126800D01*
X0169202Y0128300D02*
X0170702Y0128300D01*
X0175702Y0126800D02*
X0175702Y0123300D01*
X0172702Y0123300D01*
X0110700Y0176957D02*
X0101842Y0176957D01*
X0110700Y0176957D02*
X0110700Y0184831D01*
X0103811Y0196643D02*
X0086094Y0196643D01*
X0079204Y0184831D02*
X0079204Y0176957D01*
X0088063Y0176957D01*
D102*
X0081713Y0157327D02*
X0082230Y0156810D01*
X0082230Y0155775D01*
X0081713Y0155258D01*
X0082230Y0154104D02*
X0081196Y0153070D01*
X0081196Y0153587D02*
X0081196Y0152036D01*
X0082230Y0152036D02*
X0079127Y0152036D01*
X0079127Y0153587D01*
X0079644Y0154104D01*
X0080679Y0154104D01*
X0081196Y0153587D01*
X0079644Y0155258D02*
X0079127Y0155775D01*
X0079127Y0156810D01*
X0079644Y0157327D01*
X0080162Y0157327D01*
X0080679Y0156810D01*
X0081196Y0157327D01*
X0081713Y0157327D01*
X0080679Y0156810D02*
X0080679Y0156293D01*
X0101458Y0157578D02*
X0106062Y0157578D01*
X0106062Y0156044D02*
X0106062Y0159113D01*
X0102992Y0156044D02*
X0101458Y0157578D01*
X0101458Y0154509D02*
X0105294Y0154509D01*
X0106062Y0153742D01*
X0106062Y0152207D01*
X0105294Y0151440D01*
X0101458Y0151440D01*
X0098585Y0135173D02*
X0099352Y0134406D01*
X0099352Y0132871D01*
X0098585Y0132104D01*
X0098585Y0130569D02*
X0099352Y0129802D01*
X0099352Y0128267D01*
X0098585Y0127500D01*
X0095516Y0127500D01*
X0094749Y0128267D01*
X0094749Y0129802D01*
X0095516Y0130569D01*
X0095516Y0132104D02*
X0094749Y0132871D01*
X0094749Y0134406D01*
X0095516Y0135173D01*
X0096283Y0135173D01*
X0097051Y0134406D01*
X0097818Y0135173D01*
X0098585Y0135173D01*
X0097051Y0134406D02*
X0097051Y0133639D01*
X0084952Y0133839D02*
X0080349Y0133839D01*
X0081883Y0132304D01*
X0081116Y0130769D02*
X0080349Y0130002D01*
X0080349Y0128467D01*
X0081116Y0127700D01*
X0084185Y0127700D01*
X0084952Y0128467D01*
X0084952Y0130002D01*
X0084185Y0130769D01*
X0084952Y0132304D02*
X0084952Y0135373D01*
X0071152Y0128191D02*
X0071152Y0126123D01*
X0069084Y0128191D01*
X0068567Y0128191D01*
X0068050Y0127674D01*
X0068050Y0126640D01*
X0068567Y0126123D01*
X0068567Y0124968D02*
X0069601Y0124968D01*
X0070118Y0124451D01*
X0070118Y0122900D01*
X0070118Y0123934D02*
X0071152Y0124968D01*
X0071152Y0122900D02*
X0068050Y0122900D01*
X0068050Y0124451D01*
X0068567Y0124968D01*
X0070552Y0104591D02*
X0070552Y0102523D01*
X0070552Y0103557D02*
X0067450Y0103557D01*
X0068484Y0102523D01*
X0067967Y0101368D02*
X0069001Y0101368D01*
X0069518Y0100851D01*
X0069518Y0099300D01*
X0069518Y0100334D02*
X0070552Y0101368D01*
X0070552Y0099300D02*
X0067450Y0099300D01*
X0067450Y0100851D01*
X0067967Y0101368D01*
X0082450Y0100251D02*
X0082450Y0098700D01*
X0085552Y0098700D01*
X0084518Y0098700D02*
X0084518Y0100251D01*
X0084001Y0100768D01*
X0082967Y0100768D01*
X0082450Y0100251D01*
X0084518Y0099734D02*
X0085552Y0100768D01*
X0084001Y0101923D02*
X0084001Y0103991D01*
X0082450Y0103474D02*
X0084001Y0101923D01*
X0085552Y0103474D02*
X0082450Y0103474D01*
X0094149Y0104267D02*
X0094916Y0103500D01*
X0097985Y0103500D01*
X0098752Y0104267D01*
X0098752Y0105802D01*
X0097985Y0106569D01*
X0098752Y0108104D02*
X0095683Y0111173D01*
X0094916Y0111173D01*
X0094149Y0110406D01*
X0094149Y0108871D01*
X0094916Y0108104D01*
X0094916Y0106569D02*
X0094149Y0105802D01*
X0094149Y0104267D01*
X0098752Y0108104D02*
X0098752Y0111173D01*
X0109916Y0127500D02*
X0109149Y0128267D01*
X0109149Y0129802D01*
X0109916Y0130569D01*
X0111451Y0132104D02*
X0111451Y0135173D01*
X0113752Y0134406D02*
X0109149Y0134406D01*
X0111451Y0132104D01*
X0112985Y0130569D02*
X0113752Y0129802D01*
X0113752Y0128267D01*
X0112985Y0127500D01*
X0109916Y0127500D01*
X0123149Y0128267D02*
X0123916Y0127500D01*
X0126985Y0127500D01*
X0127752Y0128267D01*
X0127752Y0129802D01*
X0126985Y0130569D01*
X0126985Y0132104D02*
X0127752Y0132871D01*
X0127752Y0134406D01*
X0126985Y0135173D01*
X0125451Y0135173D01*
X0124683Y0134406D01*
X0124683Y0133639D01*
X0125451Y0132104D01*
X0123149Y0132104D01*
X0123149Y0135173D01*
X0123916Y0130569D02*
X0123149Y0129802D01*
X0123149Y0128267D01*
X0145350Y0122757D02*
X0148452Y0122757D01*
X0148452Y0121723D02*
X0148452Y0123791D01*
X0146384Y0121723D02*
X0145350Y0122757D01*
X0145867Y0120568D02*
X0145350Y0120051D01*
X0145350Y0118500D01*
X0148452Y0118500D01*
X0148452Y0120051D01*
X0147935Y0120568D01*
X0145867Y0120568D01*
X0151149Y0109965D02*
X0151916Y0108431D01*
X0153451Y0106896D01*
X0153451Y0109198D01*
X0154218Y0109965D01*
X0154985Y0109965D01*
X0155752Y0109198D01*
X0155752Y0107663D01*
X0154985Y0106896D01*
X0153451Y0106896D01*
X0154985Y0105361D02*
X0155752Y0104594D01*
X0155752Y0103059D01*
X0154985Y0102292D01*
X0151916Y0102292D01*
X0151149Y0103059D01*
X0151149Y0104594D01*
X0151916Y0105361D01*
X0163950Y0108455D02*
X0163950Y0110006D01*
X0164467Y0110523D01*
X0165501Y0110523D01*
X0166018Y0110006D01*
X0166018Y0108455D01*
X0166018Y0109489D02*
X0167052Y0110523D01*
X0166535Y0111677D02*
X0167052Y0112194D01*
X0167052Y0113229D01*
X0166535Y0113746D01*
X0165501Y0113746D01*
X0164984Y0113229D01*
X0164984Y0112711D01*
X0165501Y0111677D01*
X0163950Y0111677D01*
X0163950Y0113746D01*
X0167984Y0115517D02*
X0167984Y0118103D01*
X0170053Y0118103D02*
X0170053Y0115517D01*
X0169536Y0115000D01*
X0168501Y0115000D01*
X0167984Y0115517D01*
X0171207Y0115517D02*
X0171724Y0115000D01*
X0172758Y0115000D01*
X0173275Y0115517D01*
X0173275Y0116034D01*
X0172758Y0116551D01*
X0171724Y0116551D01*
X0171207Y0117068D01*
X0171207Y0117586D01*
X0171724Y0118103D01*
X0172758Y0118103D01*
X0173275Y0117586D01*
X0174430Y0118103D02*
X0174430Y0116551D01*
X0175464Y0117068D01*
X0175981Y0117068D01*
X0176498Y0116551D01*
X0176498Y0115517D01*
X0175981Y0115000D01*
X0174947Y0115000D01*
X0174430Y0115517D01*
X0172241Y0114483D02*
X0172241Y0118620D01*
X0174430Y0118103D02*
X0176498Y0118103D01*
X0167052Y0108455D02*
X0163950Y0108455D01*
X0165650Y0105391D02*
X0166167Y0104357D01*
X0167201Y0103323D01*
X0167201Y0104874D01*
X0167718Y0105391D01*
X0168235Y0105391D01*
X0168752Y0104874D01*
X0168752Y0103840D01*
X0168235Y0103323D01*
X0167201Y0103323D01*
X0167201Y0102168D02*
X0167718Y0101651D01*
X0167718Y0100100D01*
X0167718Y0101134D02*
X0168752Y0102168D01*
X0167201Y0102168D02*
X0166167Y0102168D01*
X0165650Y0101651D01*
X0165650Y0100100D01*
X0168752Y0100100D01*
X0102260Y0198500D02*
X0102260Y0201603D01*
X0100192Y0201603D02*
X0102260Y0198500D01*
X0100192Y0198500D02*
X0100192Y0201603D01*
X0099078Y0201603D02*
X0098043Y0201603D01*
X0098561Y0201603D02*
X0098561Y0198500D01*
X0099078Y0198500D02*
X0098043Y0198500D01*
X0096889Y0200051D02*
X0094821Y0200051D01*
X0093666Y0201603D02*
X0091598Y0201603D01*
X0092632Y0201603D02*
X0092632Y0198500D01*
X0090444Y0198500D02*
X0088375Y0201603D01*
X0087221Y0201603D02*
X0085152Y0201603D01*
X0085152Y0198500D01*
X0087221Y0198500D01*
X0088375Y0198500D02*
X0090444Y0201603D01*
X0086187Y0200051D02*
X0085152Y0200051D01*
X0137652Y0199517D02*
X0138170Y0199000D01*
X0139204Y0199000D01*
X0139721Y0199517D01*
X0139721Y0200551D01*
X0138687Y0200551D01*
X0137652Y0201586D02*
X0137652Y0199517D01*
X0137652Y0201586D02*
X0138170Y0202103D01*
X0139204Y0202103D01*
X0139721Y0201586D01*
X0140875Y0202103D02*
X0142427Y0202103D01*
X0142944Y0201586D01*
X0142944Y0200551D01*
X0142427Y0200034D01*
X0140875Y0200034D01*
X0140875Y0199000D02*
X0140875Y0202103D01*
X0141909Y0200034D02*
X0142944Y0199000D01*
X0144098Y0199517D02*
X0144098Y0201586D01*
X0144615Y0202103D01*
X0145649Y0202103D01*
X0146166Y0201586D01*
X0146166Y0199517D01*
X0145649Y0199000D01*
X0144615Y0199000D01*
X0144098Y0199517D01*
X0147321Y0200034D02*
X0147321Y0202103D01*
X0149389Y0202103D02*
X0149389Y0200034D01*
X0148355Y0199000D01*
X0147321Y0200034D01*
X0150543Y0200551D02*
X0151578Y0200551D01*
X0150543Y0199000D02*
X0152612Y0199000D01*
X0150543Y0199000D02*
X0150543Y0202103D01*
X0152612Y0202103D01*
D103*
X0107513Y0165602D02*
X0104243Y0165602D01*
X0105878Y0167237D02*
X0105878Y0163967D01*
X0087099Y0165602D02*
X0083830Y0165602D01*
X0159520Y0096455D02*
X0159520Y0090150D01*
X0162673Y0090150D01*
X0163724Y0091201D01*
X0163724Y0095404D01*
X0162673Y0096455D01*
X0159520Y0096455D01*
X0165966Y0096455D02*
X0165966Y0090150D01*
X0169119Y0090150D01*
X0170170Y0091201D01*
X0170170Y0092252D01*
X0169119Y0093303D01*
X0165966Y0093303D01*
X0165966Y0096455D02*
X0169119Y0096455D01*
X0170170Y0095404D01*
X0170170Y0094354D01*
X0169119Y0093303D01*
X0172411Y0093303D02*
X0176615Y0093303D01*
X0178857Y0094354D02*
X0179908Y0093303D01*
X0183061Y0093303D01*
X0183061Y0095404D02*
X0182010Y0096455D01*
X0179908Y0096455D01*
X0178857Y0095404D01*
X0178857Y0094354D01*
X0178857Y0091201D02*
X0179908Y0090150D01*
X0182010Y0090150D01*
X0183061Y0091201D01*
X0183061Y0095404D01*
D104*
X0124952Y0043300D03*
D105*
X0124952Y0026800D03*
D106*
X0125052Y0059050D03*
X0135752Y0059050D03*
X0146552Y0059050D03*
X0114152Y0059050D03*
X0103352Y0059050D03*
D107*
X0108752Y0054050D03*
X0119652Y0054050D03*
X0130352Y0054050D03*
X0141152Y0054050D03*
D108*
X0136763Y0096564D02*
X0135976Y0096564D01*
X0136763Y0096564D02*
X0136763Y0104831D01*
X0136676Y0104833D01*
X0136589Y0104839D01*
X0136502Y0104848D01*
X0136416Y0104862D01*
X0136331Y0104879D01*
X0136246Y0104900D01*
X0136163Y0104925D01*
X0136080Y0104953D01*
X0135999Y0104985D01*
X0135920Y0105021D01*
X0135842Y0105060D01*
X0135766Y0105102D01*
X0135692Y0105148D01*
X0135620Y0105197D01*
X0135550Y0105249D01*
X0135483Y0105304D01*
X0135418Y0105362D01*
X0135355Y0105423D01*
X0135296Y0105487D01*
X0135239Y0105553D01*
X0135186Y0105622D01*
X0135135Y0105693D01*
X0135088Y0105766D01*
X0135043Y0105841D01*
X0135003Y0105918D01*
X0134965Y0105996D01*
X0134932Y0106077D01*
X0134901Y0106158D01*
X0134875Y0106241D01*
X0134852Y0106326D01*
X0134833Y0106411D01*
X0134818Y0106496D01*
X0134806Y0106583D01*
X0134798Y0106669D01*
X0134794Y0106756D01*
X0134794Y0106844D01*
X0134798Y0106931D01*
X0134806Y0107017D01*
X0134818Y0107104D01*
X0134833Y0107189D01*
X0134852Y0107274D01*
X0134875Y0107359D01*
X0134901Y0107442D01*
X0134932Y0107523D01*
X0134965Y0107604D01*
X0135003Y0107682D01*
X0135043Y0107759D01*
X0135088Y0107834D01*
X0135135Y0107907D01*
X0135186Y0107978D01*
X0135239Y0108047D01*
X0135296Y0108113D01*
X0135355Y0108177D01*
X0135418Y0108238D01*
X0135483Y0108296D01*
X0135550Y0108351D01*
X0135620Y0108403D01*
X0135692Y0108452D01*
X0135766Y0108498D01*
X0135842Y0108540D01*
X0135920Y0108579D01*
X0135999Y0108615D01*
X0136080Y0108647D01*
X0136163Y0108675D01*
X0136246Y0108700D01*
X0136331Y0108721D01*
X0136416Y0108738D01*
X0136502Y0108752D01*
X0136589Y0108761D01*
X0136676Y0108767D01*
X0136763Y0108769D01*
X0136763Y0116249D01*
X0135976Y0116249D01*
X0113535Y0116249D02*
X0112748Y0116249D01*
X0112748Y0096564D01*
X0113535Y0096564D01*
X0073015Y0232800D02*
X0060889Y0232800D01*
X0056952Y0237918D02*
X0056952Y0247682D01*
X0060889Y0252800D02*
X0073015Y0252800D01*
X0076952Y0247682D02*
X0076952Y0237800D01*
X0061952Y0242800D02*
X0061954Y0242941D01*
X0061960Y0243082D01*
X0061970Y0243222D01*
X0061984Y0243362D01*
X0062002Y0243502D01*
X0062023Y0243641D01*
X0062049Y0243780D01*
X0062078Y0243918D01*
X0062112Y0244054D01*
X0062149Y0244190D01*
X0062190Y0244325D01*
X0062235Y0244459D01*
X0062284Y0244591D01*
X0062336Y0244722D01*
X0062392Y0244851D01*
X0062452Y0244978D01*
X0062515Y0245104D01*
X0062581Y0245228D01*
X0062652Y0245351D01*
X0062725Y0245471D01*
X0062802Y0245589D01*
X0062882Y0245705D01*
X0062966Y0245818D01*
X0063052Y0245929D01*
X0063142Y0246038D01*
X0063235Y0246144D01*
X0063330Y0246247D01*
X0063429Y0246348D01*
X0063530Y0246446D01*
X0063634Y0246541D01*
X0063741Y0246633D01*
X0063850Y0246722D01*
X0063962Y0246807D01*
X0064076Y0246890D01*
X0064192Y0246970D01*
X0064311Y0247046D01*
X0064432Y0247118D01*
X0064554Y0247188D01*
X0064679Y0247253D01*
X0064805Y0247316D01*
X0064933Y0247374D01*
X0065063Y0247429D01*
X0065194Y0247481D01*
X0065327Y0247528D01*
X0065461Y0247572D01*
X0065596Y0247613D01*
X0065732Y0247649D01*
X0065869Y0247681D01*
X0066007Y0247710D01*
X0066145Y0247735D01*
X0066285Y0247755D01*
X0066425Y0247772D01*
X0066565Y0247785D01*
X0066706Y0247794D01*
X0066846Y0247799D01*
X0066987Y0247800D01*
X0067128Y0247797D01*
X0067269Y0247790D01*
X0067409Y0247779D01*
X0067549Y0247764D01*
X0067689Y0247745D01*
X0067828Y0247723D01*
X0067966Y0247696D01*
X0068104Y0247666D01*
X0068240Y0247631D01*
X0068376Y0247593D01*
X0068510Y0247551D01*
X0068644Y0247505D01*
X0068776Y0247456D01*
X0068906Y0247402D01*
X0069035Y0247345D01*
X0069162Y0247285D01*
X0069288Y0247221D01*
X0069411Y0247153D01*
X0069533Y0247082D01*
X0069653Y0247008D01*
X0069770Y0246930D01*
X0069885Y0246849D01*
X0069998Y0246765D01*
X0070109Y0246678D01*
X0070217Y0246587D01*
X0070322Y0246494D01*
X0070425Y0246397D01*
X0070525Y0246298D01*
X0070622Y0246196D01*
X0070716Y0246091D01*
X0070807Y0245984D01*
X0070895Y0245874D01*
X0070980Y0245762D01*
X0071062Y0245647D01*
X0071141Y0245530D01*
X0071216Y0245411D01*
X0071288Y0245290D01*
X0071356Y0245167D01*
X0071421Y0245042D01*
X0071483Y0244915D01*
X0071540Y0244786D01*
X0071595Y0244656D01*
X0071645Y0244525D01*
X0071692Y0244392D01*
X0071735Y0244258D01*
X0071774Y0244122D01*
X0071809Y0243986D01*
X0071841Y0243849D01*
X0071868Y0243711D01*
X0071892Y0243572D01*
X0071912Y0243432D01*
X0071928Y0243292D01*
X0071940Y0243152D01*
X0071948Y0243011D01*
X0071952Y0242870D01*
X0071952Y0242730D01*
X0071948Y0242589D01*
X0071940Y0242448D01*
X0071928Y0242308D01*
X0071912Y0242168D01*
X0071892Y0242028D01*
X0071868Y0241889D01*
X0071841Y0241751D01*
X0071809Y0241614D01*
X0071774Y0241478D01*
X0071735Y0241342D01*
X0071692Y0241208D01*
X0071645Y0241075D01*
X0071595Y0240944D01*
X0071540Y0240814D01*
X0071483Y0240685D01*
X0071421Y0240558D01*
X0071356Y0240433D01*
X0071288Y0240310D01*
X0071216Y0240189D01*
X0071141Y0240070D01*
X0071062Y0239953D01*
X0070980Y0239838D01*
X0070895Y0239726D01*
X0070807Y0239616D01*
X0070716Y0239509D01*
X0070622Y0239404D01*
X0070525Y0239302D01*
X0070425Y0239203D01*
X0070322Y0239106D01*
X0070217Y0239013D01*
X0070109Y0238922D01*
X0069998Y0238835D01*
X0069885Y0238751D01*
X0069770Y0238670D01*
X0069653Y0238592D01*
X0069533Y0238518D01*
X0069411Y0238447D01*
X0069288Y0238379D01*
X0069162Y0238315D01*
X0069035Y0238255D01*
X0068906Y0238198D01*
X0068776Y0238144D01*
X0068644Y0238095D01*
X0068510Y0238049D01*
X0068376Y0238007D01*
X0068240Y0237969D01*
X0068104Y0237934D01*
X0067966Y0237904D01*
X0067828Y0237877D01*
X0067689Y0237855D01*
X0067549Y0237836D01*
X0067409Y0237821D01*
X0067269Y0237810D01*
X0067128Y0237803D01*
X0066987Y0237800D01*
X0066846Y0237801D01*
X0066706Y0237806D01*
X0066565Y0237815D01*
X0066425Y0237828D01*
X0066285Y0237845D01*
X0066145Y0237865D01*
X0066007Y0237890D01*
X0065869Y0237919D01*
X0065732Y0237951D01*
X0065596Y0237987D01*
X0065461Y0238028D01*
X0065327Y0238072D01*
X0065194Y0238119D01*
X0065063Y0238171D01*
X0064933Y0238226D01*
X0064805Y0238284D01*
X0064679Y0238347D01*
X0064554Y0238412D01*
X0064432Y0238482D01*
X0064311Y0238554D01*
X0064192Y0238630D01*
X0064076Y0238710D01*
X0063962Y0238793D01*
X0063850Y0238878D01*
X0063741Y0238967D01*
X0063634Y0239059D01*
X0063530Y0239154D01*
X0063429Y0239252D01*
X0063330Y0239353D01*
X0063235Y0239456D01*
X0063142Y0239562D01*
X0063052Y0239671D01*
X0062966Y0239782D01*
X0062882Y0239895D01*
X0062802Y0240011D01*
X0062725Y0240129D01*
X0062652Y0240249D01*
X0062581Y0240372D01*
X0062515Y0240496D01*
X0062452Y0240622D01*
X0062392Y0240749D01*
X0062336Y0240878D01*
X0062284Y0241009D01*
X0062235Y0241141D01*
X0062190Y0241275D01*
X0062149Y0241410D01*
X0062112Y0241546D01*
X0062078Y0241682D01*
X0062049Y0241820D01*
X0062023Y0241959D01*
X0062002Y0242098D01*
X0061984Y0242238D01*
X0061970Y0242378D01*
X0061960Y0242518D01*
X0061954Y0242659D01*
X0061952Y0242800D01*
X0177286Y0238252D02*
X0177286Y0248016D01*
X0181223Y0253134D02*
X0193349Y0253134D01*
X0197286Y0248016D02*
X0197286Y0238134D01*
X0193349Y0233134D02*
X0181223Y0233134D01*
X0182286Y0243134D02*
X0182288Y0243275D01*
X0182294Y0243416D01*
X0182304Y0243556D01*
X0182318Y0243696D01*
X0182336Y0243836D01*
X0182357Y0243975D01*
X0182383Y0244114D01*
X0182412Y0244252D01*
X0182446Y0244388D01*
X0182483Y0244524D01*
X0182524Y0244659D01*
X0182569Y0244793D01*
X0182618Y0244925D01*
X0182670Y0245056D01*
X0182726Y0245185D01*
X0182786Y0245312D01*
X0182849Y0245438D01*
X0182915Y0245562D01*
X0182986Y0245685D01*
X0183059Y0245805D01*
X0183136Y0245923D01*
X0183216Y0246039D01*
X0183300Y0246152D01*
X0183386Y0246263D01*
X0183476Y0246372D01*
X0183569Y0246478D01*
X0183664Y0246581D01*
X0183763Y0246682D01*
X0183864Y0246780D01*
X0183968Y0246875D01*
X0184075Y0246967D01*
X0184184Y0247056D01*
X0184296Y0247141D01*
X0184410Y0247224D01*
X0184526Y0247304D01*
X0184645Y0247380D01*
X0184766Y0247452D01*
X0184888Y0247522D01*
X0185013Y0247587D01*
X0185139Y0247650D01*
X0185267Y0247708D01*
X0185397Y0247763D01*
X0185528Y0247815D01*
X0185661Y0247862D01*
X0185795Y0247906D01*
X0185930Y0247947D01*
X0186066Y0247983D01*
X0186203Y0248015D01*
X0186341Y0248044D01*
X0186479Y0248069D01*
X0186619Y0248089D01*
X0186759Y0248106D01*
X0186899Y0248119D01*
X0187040Y0248128D01*
X0187180Y0248133D01*
X0187321Y0248134D01*
X0187462Y0248131D01*
X0187603Y0248124D01*
X0187743Y0248113D01*
X0187883Y0248098D01*
X0188023Y0248079D01*
X0188162Y0248057D01*
X0188300Y0248030D01*
X0188438Y0248000D01*
X0188574Y0247965D01*
X0188710Y0247927D01*
X0188844Y0247885D01*
X0188978Y0247839D01*
X0189110Y0247790D01*
X0189240Y0247736D01*
X0189369Y0247679D01*
X0189496Y0247619D01*
X0189622Y0247555D01*
X0189745Y0247487D01*
X0189867Y0247416D01*
X0189987Y0247342D01*
X0190104Y0247264D01*
X0190219Y0247183D01*
X0190332Y0247099D01*
X0190443Y0247012D01*
X0190551Y0246921D01*
X0190656Y0246828D01*
X0190759Y0246731D01*
X0190859Y0246632D01*
X0190956Y0246530D01*
X0191050Y0246425D01*
X0191141Y0246318D01*
X0191229Y0246208D01*
X0191314Y0246096D01*
X0191396Y0245981D01*
X0191475Y0245864D01*
X0191550Y0245745D01*
X0191622Y0245624D01*
X0191690Y0245501D01*
X0191755Y0245376D01*
X0191817Y0245249D01*
X0191874Y0245120D01*
X0191929Y0244990D01*
X0191979Y0244859D01*
X0192026Y0244726D01*
X0192069Y0244592D01*
X0192108Y0244456D01*
X0192143Y0244320D01*
X0192175Y0244183D01*
X0192202Y0244045D01*
X0192226Y0243906D01*
X0192246Y0243766D01*
X0192262Y0243626D01*
X0192274Y0243486D01*
X0192282Y0243345D01*
X0192286Y0243204D01*
X0192286Y0243064D01*
X0192282Y0242923D01*
X0192274Y0242782D01*
X0192262Y0242642D01*
X0192246Y0242502D01*
X0192226Y0242362D01*
X0192202Y0242223D01*
X0192175Y0242085D01*
X0192143Y0241948D01*
X0192108Y0241812D01*
X0192069Y0241676D01*
X0192026Y0241542D01*
X0191979Y0241409D01*
X0191929Y0241278D01*
X0191874Y0241148D01*
X0191817Y0241019D01*
X0191755Y0240892D01*
X0191690Y0240767D01*
X0191622Y0240644D01*
X0191550Y0240523D01*
X0191475Y0240404D01*
X0191396Y0240287D01*
X0191314Y0240172D01*
X0191229Y0240060D01*
X0191141Y0239950D01*
X0191050Y0239843D01*
X0190956Y0239738D01*
X0190859Y0239636D01*
X0190759Y0239537D01*
X0190656Y0239440D01*
X0190551Y0239347D01*
X0190443Y0239256D01*
X0190332Y0239169D01*
X0190219Y0239085D01*
X0190104Y0239004D01*
X0189987Y0238926D01*
X0189867Y0238852D01*
X0189745Y0238781D01*
X0189622Y0238713D01*
X0189496Y0238649D01*
X0189369Y0238589D01*
X0189240Y0238532D01*
X0189110Y0238478D01*
X0188978Y0238429D01*
X0188844Y0238383D01*
X0188710Y0238341D01*
X0188574Y0238303D01*
X0188438Y0238268D01*
X0188300Y0238238D01*
X0188162Y0238211D01*
X0188023Y0238189D01*
X0187883Y0238170D01*
X0187743Y0238155D01*
X0187603Y0238144D01*
X0187462Y0238137D01*
X0187321Y0238134D01*
X0187180Y0238135D01*
X0187040Y0238140D01*
X0186899Y0238149D01*
X0186759Y0238162D01*
X0186619Y0238179D01*
X0186479Y0238199D01*
X0186341Y0238224D01*
X0186203Y0238253D01*
X0186066Y0238285D01*
X0185930Y0238321D01*
X0185795Y0238362D01*
X0185661Y0238406D01*
X0185528Y0238453D01*
X0185397Y0238505D01*
X0185267Y0238560D01*
X0185139Y0238618D01*
X0185013Y0238681D01*
X0184888Y0238746D01*
X0184766Y0238816D01*
X0184645Y0238888D01*
X0184526Y0238964D01*
X0184410Y0239044D01*
X0184296Y0239127D01*
X0184184Y0239212D01*
X0184075Y0239301D01*
X0183968Y0239393D01*
X0183864Y0239488D01*
X0183763Y0239586D01*
X0183664Y0239687D01*
X0183569Y0239790D01*
X0183476Y0239896D01*
X0183386Y0240005D01*
X0183300Y0240116D01*
X0183216Y0240229D01*
X0183136Y0240345D01*
X0183059Y0240463D01*
X0182986Y0240583D01*
X0182915Y0240706D01*
X0182849Y0240830D01*
X0182786Y0240956D01*
X0182726Y0241083D01*
X0182670Y0241212D01*
X0182618Y0241343D01*
X0182569Y0241475D01*
X0182524Y0241609D01*
X0182483Y0241744D01*
X0182446Y0241880D01*
X0182412Y0242016D01*
X0182383Y0242154D01*
X0182357Y0242293D01*
X0182336Y0242432D01*
X0182318Y0242572D01*
X0182304Y0242712D01*
X0182294Y0242852D01*
X0182288Y0242993D01*
X0182286Y0243134D01*
D109*
X0186416Y0236085D02*
X0187417Y0236085D01*
X0187889Y0236085D02*
X0187889Y0234584D01*
X0188890Y0234584D01*
X0189362Y0234584D02*
X0190363Y0234584D01*
X0189362Y0234584D02*
X0189362Y0236085D01*
X0188890Y0236085D02*
X0187889Y0236085D01*
X0187889Y0235335D02*
X0188390Y0235335D01*
X0186916Y0235335D02*
X0186416Y0235335D01*
X0186416Y0236085D02*
X0186416Y0234584D01*
X0070030Y0234250D02*
X0069029Y0234250D01*
X0068557Y0234250D02*
X0067556Y0234250D01*
X0067556Y0235751D01*
X0067084Y0235751D02*
X0066083Y0235751D01*
X0066083Y0234250D01*
X0067084Y0234250D01*
X0066583Y0235001D02*
X0066083Y0235001D01*
X0065610Y0235751D02*
X0064609Y0235751D01*
X0064609Y0234250D01*
X0064609Y0235001D02*
X0065110Y0235001D01*
X0069029Y0235251D02*
X0069530Y0235751D01*
X0069530Y0234250D01*
D110*
X0091960Y0215461D02*
X0091960Y0254831D01*
X0117945Y0254831D02*
X0117945Y0247351D01*
X0117945Y0241052D02*
X0117945Y0235540D01*
X0117945Y0229241D02*
X0117945Y0219792D01*
X0117945Y0213493D02*
X0117945Y0208769D01*
X0091960Y0208769D01*
X0120937Y0197560D02*
X0120937Y0194804D01*
X0120937Y0197560D02*
X0168968Y0197560D01*
X0168968Y0194804D01*
X0168968Y0183568D02*
X0168968Y0181024D01*
X0168968Y0177481D01*
X0159913Y0177481D01*
X0159913Y0181024D01*
X0168968Y0181024D01*
X0154008Y0181024D02*
X0151252Y0181024D01*
X0146134Y0181024D02*
X0143378Y0181024D01*
X0138260Y0181024D02*
X0135504Y0181024D01*
X0129992Y0181024D02*
X0129992Y0177481D01*
X0120937Y0177481D01*
X0120937Y0181024D01*
X0120937Y0183568D01*
X0120937Y0181024D02*
X0129992Y0181024D01*
X0136960Y0208769D02*
X0162945Y0208769D01*
X0162945Y0213493D01*
X0162945Y0219792D02*
X0162945Y0229241D01*
X0162945Y0235540D02*
X0162945Y0241052D01*
X0162945Y0247351D02*
X0162945Y0254831D01*
X0136960Y0254831D02*
X0136960Y0215461D01*
X0098362Y0157748D02*
X0084162Y0157748D01*
X0084162Y0143148D02*
X0098362Y0143148D01*
D111*
X0115583Y0111702D02*
X0116317Y0110968D01*
X0117051Y0111702D01*
X0117051Y0109500D01*
X0117793Y0109500D02*
X0117793Y0110968D01*
X0118527Y0111702D01*
X0119261Y0110968D01*
X0119261Y0109500D01*
X0120003Y0109500D02*
X0121471Y0111702D01*
X0122213Y0110601D02*
X0123681Y0110601D01*
X0124423Y0111335D02*
X0124790Y0111702D01*
X0125524Y0111702D01*
X0125891Y0111335D01*
X0125891Y0110968D01*
X0124423Y0109500D01*
X0125891Y0109500D01*
X0126633Y0109867D02*
X0127000Y0109500D01*
X0127734Y0109500D01*
X0128101Y0109867D01*
X0128101Y0110234D01*
X0127734Y0110601D01*
X0127367Y0110601D01*
X0127734Y0110601D02*
X0128101Y0110968D01*
X0128101Y0111335D01*
X0127734Y0111702D01*
X0127000Y0111702D01*
X0126633Y0111335D01*
X0128843Y0111335D02*
X0129209Y0111702D01*
X0129943Y0111702D01*
X0130310Y0111335D01*
X0130310Y0110968D01*
X0128843Y0109500D01*
X0130310Y0109500D01*
X0121471Y0109500D02*
X0120003Y0111702D01*
X0119261Y0110601D02*
X0117793Y0110601D01*
X0115583Y0109500D02*
X0115583Y0111702D01*
M02*
