G75*
%MOIN*%
%OFA0B0*%
%FSLAX25Y25*%
%IPPOS*%
%LPD*%
%AMOC8*
5,1,8,0,0,1.08239X$1,22.5*
%
%ADD10C,0.06500*%
%ADD11R,0.06500X0.06500*%
%ADD12R,0.04500X0.05000*%
%ADD13C,0.01125*%
%ADD14R,0.06406X0.05618*%
%ADD15OC8,0.06500*%
%ADD16C,0.20500*%
%ADD17R,0.06500X0.03500*%
%ADD18C,0.01000*%
%ADD19R,0.10343X0.05224*%
%ADD20C,0.05224*%
%ADD21R,0.02075X0.06799*%
%ADD22R,0.04437X0.10343*%
%ADD23R,0.08374X0.10343*%
%ADD24R,0.04437X0.22154*%
%ADD25R,0.06799X0.13886*%
%ADD26R,0.06524X0.02587*%
%ADD27C,0.03278*%
%ADD28C,0.03200*%
D10*
X0049952Y0031800D03*
X0049952Y0041800D03*
X0049952Y0051800D03*
X0049952Y0061800D03*
X0049952Y0071800D03*
X0049952Y0081800D03*
X0049952Y0091800D03*
X0049952Y0101800D03*
X0049952Y0111800D03*
X0049952Y0121800D03*
X0049952Y0131800D03*
X0049952Y0141800D03*
X0049952Y0151800D03*
X0049952Y0161800D03*
X0049952Y0171800D03*
X0049952Y0181800D03*
X0049952Y0191800D03*
X0049952Y0201800D03*
X0049952Y0211800D03*
X0059952Y0211800D03*
X0059952Y0201800D03*
X0059952Y0191800D03*
X0059952Y0181800D03*
X0059952Y0171800D03*
X0059952Y0161800D03*
X0059952Y0151800D03*
X0059952Y0141800D03*
X0059952Y0131800D03*
X0059952Y0121800D03*
X0059952Y0111800D03*
X0059952Y0101800D03*
X0059952Y0091800D03*
X0059952Y0081800D03*
X0059952Y0071800D03*
X0059952Y0061800D03*
X0059952Y0051800D03*
X0059952Y0041800D03*
X0059952Y0031800D03*
X0189952Y0031800D03*
X0189952Y0041800D03*
X0189952Y0051800D03*
X0189952Y0061800D03*
X0189952Y0071800D03*
X0189952Y0081800D03*
X0189952Y0091800D03*
X0189952Y0101800D03*
X0189952Y0111800D03*
X0189952Y0121800D03*
X0189952Y0131800D03*
X0189952Y0141800D03*
X0189952Y0151800D03*
X0189952Y0161800D03*
X0189952Y0171800D03*
X0189952Y0181800D03*
X0189952Y0191800D03*
X0189952Y0201800D03*
X0189952Y0211800D03*
X0199952Y0211800D03*
X0199952Y0201800D03*
X0199952Y0191800D03*
X0199952Y0181800D03*
X0199952Y0171800D03*
X0199952Y0161800D03*
X0199952Y0151800D03*
X0199952Y0141800D03*
X0199952Y0131800D03*
X0199952Y0121800D03*
X0199952Y0111800D03*
X0199952Y0101800D03*
X0199952Y0091800D03*
X0199952Y0081800D03*
X0199952Y0071800D03*
X0199952Y0061800D03*
X0199952Y0051800D03*
X0199952Y0041800D03*
X0199952Y0031800D03*
X0199952Y0221800D03*
X0059952Y0221800D03*
D11*
X0049952Y0221800D03*
X0189952Y0221800D03*
D12*
X0173452Y0129800D03*
X0166452Y0129800D03*
X0169952Y0121800D03*
D13*
X0175390Y0112588D02*
X0175390Y0109212D01*
X0170514Y0109212D01*
X0170514Y0112588D01*
X0175390Y0112588D01*
X0175390Y0110336D02*
X0170514Y0110336D01*
X0170514Y0111460D02*
X0175390Y0111460D01*
X0175390Y0112584D02*
X0170514Y0112584D01*
X0175390Y0105588D02*
X0175390Y0102212D01*
X0170514Y0102212D01*
X0170514Y0105588D01*
X0175390Y0105588D01*
X0175390Y0103336D02*
X0170514Y0103336D01*
X0170514Y0104460D02*
X0175390Y0104460D01*
X0175390Y0105584D02*
X0170514Y0105584D01*
X0157314Y0105388D02*
X0157314Y0102012D01*
X0157314Y0105388D02*
X0162190Y0105388D01*
X0162190Y0102012D01*
X0157314Y0102012D01*
X0157314Y0103136D02*
X0162190Y0103136D01*
X0162190Y0104260D02*
X0157314Y0104260D01*
X0157314Y0105384D02*
X0162190Y0105384D01*
X0157314Y0109012D02*
X0157314Y0112388D01*
X0162190Y0112388D01*
X0162190Y0109012D01*
X0157314Y0109012D01*
X0157314Y0110136D02*
X0162190Y0110136D01*
X0162190Y0111260D02*
X0157314Y0111260D01*
X0157314Y0112384D02*
X0162190Y0112384D01*
X0092190Y0111188D02*
X0092190Y0107812D01*
X0087314Y0107812D01*
X0087314Y0111188D01*
X0092190Y0111188D01*
X0092190Y0108936D02*
X0087314Y0108936D01*
X0087314Y0110060D02*
X0092190Y0110060D01*
X0092190Y0111184D02*
X0087314Y0111184D01*
X0092190Y0104188D02*
X0092190Y0100812D01*
X0087314Y0100812D01*
X0087314Y0104188D01*
X0092190Y0104188D01*
X0092190Y0101936D02*
X0087314Y0101936D01*
X0087314Y0103060D02*
X0092190Y0103060D01*
X0092190Y0104184D02*
X0087314Y0104184D01*
X0077190Y0104788D02*
X0077190Y0101412D01*
X0072314Y0101412D01*
X0072314Y0104788D01*
X0077190Y0104788D01*
X0077190Y0102536D02*
X0072314Y0102536D01*
X0072314Y0103660D02*
X0077190Y0103660D01*
X0077190Y0104784D02*
X0072314Y0104784D01*
X0077190Y0108412D02*
X0077190Y0111788D01*
X0077190Y0108412D02*
X0072314Y0108412D01*
X0072314Y0111788D01*
X0077190Y0111788D01*
X0077190Y0109536D02*
X0072314Y0109536D01*
X0072314Y0110660D02*
X0077190Y0110660D01*
X0077190Y0111784D02*
X0072314Y0111784D01*
X0077790Y0125012D02*
X0077790Y0128388D01*
X0077790Y0125012D02*
X0072914Y0125012D01*
X0072914Y0128388D01*
X0077790Y0128388D01*
X0077790Y0126136D02*
X0072914Y0126136D01*
X0072914Y0127260D02*
X0077790Y0127260D01*
X0077790Y0128384D02*
X0072914Y0128384D01*
X0077790Y0132012D02*
X0077790Y0135388D01*
X0077790Y0132012D02*
X0072914Y0132012D01*
X0072914Y0135388D01*
X0077790Y0135388D01*
X0077790Y0133136D02*
X0072914Y0133136D01*
X0072914Y0134260D02*
X0077790Y0134260D01*
X0077790Y0135384D02*
X0072914Y0135384D01*
X0072492Y0145593D02*
X0072492Y0148969D01*
X0077368Y0148969D01*
X0077368Y0145593D01*
X0072492Y0145593D01*
X0072492Y0146717D02*
X0077368Y0146717D01*
X0077368Y0147841D02*
X0072492Y0147841D01*
X0072492Y0148965D02*
X0077368Y0148965D01*
X0072492Y0152593D02*
X0072492Y0155969D01*
X0077368Y0155969D01*
X0077368Y0152593D01*
X0072492Y0152593D01*
X0072492Y0153717D02*
X0077368Y0153717D01*
X0077368Y0154841D02*
X0072492Y0154841D01*
X0072492Y0155965D02*
X0077368Y0155965D01*
D14*
X0089152Y0134346D03*
X0089152Y0127654D03*
X0103552Y0127454D03*
X0103552Y0134146D03*
X0117952Y0134146D03*
X0117952Y0127454D03*
X0131952Y0127454D03*
X0131952Y0134146D03*
X0146952Y0111146D03*
X0146952Y0104454D03*
X0102952Y0103454D03*
X0102952Y0110146D03*
D15*
X0103352Y0076800D03*
X0114152Y0076800D03*
X0108752Y0066800D03*
X0119552Y0066800D03*
X0130352Y0066800D03*
X0124952Y0076800D03*
X0135752Y0076800D03*
X0141152Y0066800D03*
X0146552Y0076800D03*
D16*
X0174252Y0071800D03*
X0075652Y0071800D03*
D17*
X0076952Y0235300D03*
X0076952Y0250300D03*
X0056952Y0250300D03*
X0056952Y0235300D03*
X0177286Y0235634D03*
X0177286Y0250634D03*
X0197286Y0250634D03*
X0197286Y0235634D03*
D18*
X0155402Y0130800D02*
X0155402Y0127800D01*
X0150902Y0127800D01*
X0150902Y0130800D01*
X0155402Y0130800D01*
X0155402Y0128799D02*
X0150902Y0128799D01*
X0150902Y0129798D02*
X0155402Y0129798D01*
X0155402Y0130797D02*
X0150902Y0130797D01*
X0155402Y0123800D02*
X0155402Y0120800D01*
X0150902Y0120800D01*
X0150902Y0123800D01*
X0155402Y0123800D01*
X0155402Y0121799D02*
X0150902Y0121799D01*
X0150902Y0122798D02*
X0155402Y0122798D01*
X0155402Y0123797D02*
X0150902Y0123797D01*
D19*
X0137157Y0212312D03*
X0117748Y0216643D03*
X0117748Y0232391D03*
X0117748Y0244202D03*
X0092157Y0212312D03*
X0162748Y0216643D03*
X0162748Y0232391D03*
X0162748Y0244202D03*
D20*
X0149952Y0250501D03*
X0149952Y0222942D03*
X0104952Y0222942D03*
X0104952Y0250501D03*
D21*
X0115799Y0118020D03*
X0118358Y0118020D03*
X0120917Y0118020D03*
X0123476Y0118020D03*
X0126035Y0118020D03*
X0128594Y0118020D03*
X0131153Y0118020D03*
X0133712Y0118020D03*
X0133712Y0094792D03*
X0131153Y0094792D03*
X0128594Y0094792D03*
X0126035Y0094792D03*
X0123476Y0094792D03*
X0120917Y0094792D03*
X0118358Y0094792D03*
X0115799Y0094792D03*
D22*
X0133141Y0176800D03*
X0141015Y0176800D03*
X0148889Y0176800D03*
X0156763Y0176800D03*
D23*
X0167787Y0189095D03*
X0122118Y0189095D03*
D24*
X0098889Y0179713D03*
X0091015Y0179713D03*
D25*
X0081567Y0186800D03*
X0108338Y0186800D03*
D26*
X0097955Y0155448D03*
X0097955Y0150448D03*
X0097955Y0145448D03*
X0084568Y0145448D03*
X0084568Y0150448D03*
X0084568Y0155448D03*
D27*
X0127925Y0100786D03*
X0133591Y0087454D03*
X0102261Y0088121D03*
X0194952Y0216800D03*
X0124952Y0231800D03*
D28*
X0117787Y0237430D03*
X0122708Y0197076D03*
X0145346Y0183296D03*
X0154204Y0169517D03*
X0162078Y0156721D03*
X0145346Y0156721D03*
X0141409Y0146879D03*
X0139441Y0137036D03*
X0150267Y0133099D03*
X0148299Y0126209D03*
X0139441Y0117351D03*
X0136488Y0114398D03*
X0132551Y0110461D03*
X0127630Y0112430D03*
X0120740Y0101603D03*
X0144362Y0099635D03*
X0155189Y0099635D03*
X0124677Y0143926D03*
X0106960Y0139005D03*
X0098102Y0135068D03*
X0104008Y0153690D03*
X0104008Y0168532D03*
X0078700Y0150809D03*
X0157714Y0237430D03*
X0181763Y0240383D03*
X0160110Y0189202D03*
X0181763Y0173454D03*
M02*
